<svg xmlns="http://www.w3.org/2000/svg" xmlns:xlink="http://www.w3.org/1999/xlink" width="303.581"
    height="246.632" viewBox="0 0 303.581 246.632">
  <defs>
    <clipPath id="clip-path">
      <path id="Path_150" data-name="Path 150"
          d="M319.025,211.094v-49.6a8.39,8.39,0,0,0-8.255-8.52H164.494a8.391,8.391,0,0,0-8.255,8.52v49.6Z" />
    </clipPath>
  </defs>
  <g id="OBJECTS" transform="translate(-391.209 -137.902)">
    <g id="Group_69" data-name="Group 69" transform="translate(293 27)">
      <path id="Path_143" data-name="Path 143"
          d="M401,346.888l-10.109-17.7a8.617,8.617,0,0,1-.035-8.682l9.717-19.029c.02-.038.04-.076.061-.113a7.359,7.359,0,0,0-.013-6.931,4.509,4.509,0,0,0-4.175-2.317H103.558a4.511,4.511,0,0,0-4.175,2.317,7.359,7.359,0,0,0-.013,6.931c.021.037.042.075.061.113l9.717,19.029a8.617,8.617,0,0,1-.035,8.682L99,346.888c-1.191,2.085-1.025,5.61.377,8.025a4.662,4.662,0,0,0,4.177,2.609H396.442a4.665,4.665,0,0,0,4.177-2.609C402.021,352.5,402.187,348.973,401,346.888Z" />
      <g id="Group_60" data-name="Group 60">
        <text id="MARKO" transform="translate(142.158 343.534)" fill="#fff" font-size="54.41"
            font-family="SegoeUI, Segoe UI">
          <tspan x="0" y="0">MARKO</tspan>
        </text>
      </g>
      <g id="Group_68" data-name="Group 68">
        <path id="Path_144" data-name="Path 144"
            d="M334.884,164.37l-19.916-10.132v6.5h-91.8a7.467,7.467,0,0,0-7.467,7.467v95.324A7.467,7.467,0,0,0,223.163,271l91.8,6.417,18.92-10.372c3.689-1.777,5.193-3.781,5.193-7.112V171.074A7.46,7.46,0,0,0,334.884,164.37Z"
            stroke="#ff6e40" stroke-linecap="round" stroke-linejoin="round" stroke-miterlimit="10"
            stroke-width="5" />
        <path id="Path_145" data-name="Path 145"
            d="M317.647,117.906V117.9l-2.749-2.742-.395,1.422c-.046,0-.09-.014-.136-.014H191.748a4.7,4.7,0,0,0-4.7,4.7v18.573l-1.7,1.1,2.817,2.782a4.627,4.627,0,0,0,.61.6l.11.109.016-.005a4.661,4.661,0,0,0,2.844.981H314.365a4.7,4.7,0,0,0,4.7-4.7V121.265A4.673,4.673,0,0,0,317.647,117.906Z"
            fill="#e4e4e6" stroke="#000" stroke-linecap="round" stroke-linejoin="round"
            stroke-miterlimit="10" stroke-width="5" />
        <path id="Path_146" data-name="Path 146"
            d="M310.505,278.772H192.689a8.52,8.52,0,0,1-8.52-8.52V166.675a13.706,13.706,0,0,1,13.706-13.706H310.5a8.52,8.52,0,0,1,8.52,8.52V270.252A8.52,8.52,0,0,1,310.505,278.772Z"
            fill="#fff" stroke="#ff6e40" stroke-linecap="round" stroke-linejoin="round"
            stroke-miterlimit="10" stroke-width="5" />
        <g id="Group_62" data-name="Group 62">
          <g id="Group_61" data-name="Group 61" clip-path="url(#clip-path)">
            <path id="Path_147" data-name="Path 147"
                d="M292.224,174.2H166.414l23.941-18.967a10.408,10.408,0,0,1,6.467-2.266h122.2Z"
                fill="#fff" stroke="#ff6e40" stroke-linecap="round" stroke-linejoin="round"
                stroke-miterlimit="10" stroke-width="5" />
            <rect id="Rectangle_9" data-name="Rectangle 9" width="125.705" height="8.493"
                transform="translate(166.414 174.201)" fill="#fff" stroke="#ff6e40"
                stroke-linecap="round" stroke-linejoin="round" stroke-miterlimit="10"
                stroke-width="5" />
            <path id="Path_148" data-name="Path 148" d="M319.025,152.968v8.494L292.119,182.7V174.2Z"
                fill="#fff" stroke="#ff6e40" stroke-linecap="round" stroke-linejoin="round"
                stroke-miterlimit="10" stroke-width="5" />
            <path id="Path_149" data-name="Path 149"
                d="M274.161,182.7H166.414v10.16c0,3.185,4.02,5.766,8.979,5.766s8.979-2.581,8.979-5.766c0,3.185,4.02,5.766,8.979,5.766s8.979-2.581,8.979-5.766c0,3.185,4.02,5.766,8.979,5.766s8.979-2.581,8.979-5.766c0,3.185,4.02,5.766,8.979,5.766s8.979-2.581,8.979-5.766c0,3.185,4.02,5.766,8.979,5.766s8.979-2.581,8.979-5.766c0,3.185,4.02,5.766,8.979,5.766s8.979-2.581,8.979-5.766c0,3.185,4.02,5.766,8.979,5.766s8.979-2.581,8.979-5.766V182.7Z"
                stroke="#ff6e40" stroke-linecap="round" stroke-linejoin="round"
                stroke-miterlimit="10" stroke-width="5" />
          </g>
        </g>
        <path id="Path_151" data-name="Path 151"
            d="M311.489,142.534H188.871a4.7,4.7,0,0,1-4.7-4.7V118.39a4.7,4.7,0,0,1,4.7-4.7H311.489a4.7,4.7,0,0,1,4.7,4.7v19.443A4.7,4.7,0,0,1,311.489,142.534Z"
            fill="#fff" stroke="#ff6e40" stroke-linecap="round" stroke-linejoin="round"
            stroke-miterlimit="10" stroke-width="5" />
        <g id="Group_65" data-name="Group 65">
          <g id="Group_63" data-name="Group 63">
            <path id="Path_152" data-name="Path 152"
                d="M276.644,215.5a11.146,11.146,0,0,1,11.134,11.134v49.553H205.634V226.63A11.146,11.146,0,0,1,216.768,215.5h59.876m0-4H216.768a15.151,15.151,0,0,0-15.134,15.134v53.553h90.144V226.63A15.151,15.151,0,0,0,276.644,211.5Z"
                fill="#ff6e40" />
          </g>
          <path id="Path_153" data-name="Path 153"
              d="M246.705,276.183H209.879V226.63a6.888,6.888,0,0,1,6.888-6.888h29.938Z"
              fill="#0067b0" />
          <path id="Path_154" data-name="Path 154"
              d="M283.531,276.183H246.705V219.742h29.938a6.888,6.888,0,0,1,6.888,6.888Z"
              fill="#0067b0" />
          <g id="Group_64" data-name="Group 64">
            <path id="Path_155" data-name="Path 155"
                d="M260.846,250.373h-7.667a.8.8,0,0,1-.795-.795v-.82a.8.8,0,0,1,.795-.795h7.667a.8.8,0,0,1,.8.795v.82A.8.8,0,0,1,260.846,250.373Z"
                fill="#fff" />
            <path id="Path_156" data-name="Path 156"
                d="M240.232,250.373h-7.667a.8.8,0,0,1-.795-.795v-.82a.8.8,0,0,1,.795-.795h7.667a.8.8,0,0,1,.795.795v.82A.8.8,0,0,1,240.232,250.373Z"
                fill="#fff" />
          </g>
          <line id="Line_24" data-name="Line 24" y2="58.387" transform="translate(246.705 217.796)"
              fill="none" stroke="#fff" stroke-miterlimit="10" stroke-width="3" />
        </g>
        <g id="Group_66" data-name="Group 66">
          <rect id="Rectangle_10" data-name="Rectangle 10" width="7.616" height="9.364"
              transform="translate(208.504 143.604)" />
          <rect id="Rectangle_11" data-name="Rectangle 11" width="7.616" height="9.364"
              transform="translate(277.511 143.604)" />
        </g>
        <text id="SUPER" transform="translate(206.188 136.902)" fill="#0067b0" font-size="25.01"
            font-family="Poppins-SemiBold, Poppins" font-weight="600">
          <tspan x="0" y="0">SUPER</tspan>
        </text>
        <g id="Group_67" data-name="Group 67">
          <line id="Line_25" data-name="Line 25" y2="1.879" transform="translate(274.219 197.131)"
              fill="none" stroke="#fff" stroke-linecap="round" stroke-linejoin="round"
              stroke-miterlimit="10" stroke-width="3" />
          <line id="Line_26" data-name="Line 26" y2="1.879" transform="translate(256.223 197.131)"
              fill="none" stroke="#fff" stroke-linecap="round" stroke-linejoin="round"
              stroke-miterlimit="10" stroke-width="3" />
          <line id="Line_27" data-name="Line 27" y2="1.879" transform="translate(238.227 197.131)"
              fill="none" stroke="#fff" stroke-linecap="round" stroke-linejoin="round"
              stroke-miterlimit="10" stroke-width="3" />
          <line id="Line_28" data-name="Line 28" y2="1.879" transform="translate(220.23 197.131)"
              fill="none" stroke="#fff" stroke-linecap="round" stroke-linejoin="round"
              stroke-miterlimit="10" stroke-width="3" />
          <line id="Line_29" data-name="Line 29" y2="1.879" transform="translate(202.234 197.131)"
              fill="none" stroke="#fff" stroke-linecap="round" stroke-linejoin="round"
              stroke-miterlimit="10" stroke-width="3" />
          <line id="Line_30" data-name="Line 30" y2="1.879" transform="translate(184.237 197.131)"
              fill="none" stroke="#fff" stroke-linecap="round" stroke-linejoin="round"
              stroke-miterlimit="10" stroke-width="3" />
        </g>
      </g>
    </g>
  </g>
</svg>
