<svg xmlns="http://www.w3.org/2000/svg" width="500" height="392.56" viewBox="0 0 500 392.56">
  <g id="onBoarding1" transform="translate(0 -35)">
    <g id="freepik--background-complete--inject-34">
      <rect id="Rectangle_302" data-name="Rectangle 302" width="500" height="0.25"
          transform="translate(0 382.4)" fill="#ebebeb" />
      <rect id="Rectangle_303" data-name="Rectangle 303" width="14.9" height="0.25"
          transform="translate(435 398.49)" fill="#ebebeb" />
      <rect id="Rectangle_304" data-name="Rectangle 304" width="8.69" height="0.25"
          transform="translate(322.53 401.21)" fill="#ebebeb" />
      <rect id="Rectangle_305" data-name="Rectangle 305" width="34.19" height="0.25"
          transform="translate(396.59 389.21)" fill="#ebebeb" />
      <rect id="Rectangle_306" data-name="Rectangle 306" width="43.19" height="0.25"
          transform="translate(66.44 394.37)" fill="#ebebeb" />
      <rect id="Rectangle_307" data-name="Rectangle 307" width="15.58" height="0.25"
          transform="translate(118.53 394.37)" fill="#ebebeb" />
      <rect id="Rectangle_308" data-name="Rectangle 308" width="93.68" height="0.25"
          transform="translate(161.08 391.01)" fill="#ebebeb" />
      <path id="Path_2474" data-name="Path 2474"
          d="M237,337.8H43.91a5.71,5.71,0,0,1-5.7-5.71V60.66A5.71,5.71,0,0,1,43.91,55H237a5.71,5.71,0,0,1,5.71,5.71V332.09A5.71,5.71,0,0,1,237,337.8ZM43.91,55.2a5.46,5.46,0,0,0-5.45,5.46V332.09a5.46,5.46,0,0,0,5.45,5.46H237a5.47,5.47,0,0,0,5.46-5.46V60.66A5.47,5.47,0,0,0,237,55.2Z"
          fill="#ebebeb" />
      <path id="Path_2475" data-name="Path 2475"
          d="M453.31,337.8H260.21a5.72,5.72,0,0,1-5.71-5.71V60.66A5.72,5.72,0,0,1,260.21,55h193.1A5.71,5.71,0,0,1,459,60.66V332.09A5.71,5.71,0,0,1,453.31,337.8ZM260.21,55.2a5.47,5.47,0,0,0-5.46,5.46V332.09a5.47,5.47,0,0,0,5.46,5.46h193.1a5.47,5.47,0,0,0,5.46-5.46V60.66a5.47,5.47,0,0,0-5.46-5.46Z"
          fill="#ebebeb" />
      <rect id="Rectangle_309" data-name="Rectangle 309" width="94.67" height="266.4"
          transform="translate(74.57 116)" fill="#e0e0e0" />
      <rect id="Rectangle_310" data-name="Rectangle 310" width="251.01" height="266.4"
          transform="translate(420.24 382.4) rotate(180)" fill="#f5f5f5" />
      <rect id="Rectangle_311" data-name="Rectangle 311" width="114.67" height="6.67"
          transform="translate(64.57 149.33)" fill="#ebebeb" />
      <rect id="Rectangle_312" data-name="Rectangle 312" width="251.01" height="6.67"
          transform="translate(430.24 156) rotate(180)" fill="#e0e0e0" />
      <rect id="Rectangle_313" data-name="Rectangle 313" width="114.67" height="6.67"
          transform="translate(64.57 189.33)" fill="#ebebeb" />
      <rect id="Rectangle_314" data-name="Rectangle 314" width="251.01" height="6.67"
          transform="translate(430.24 196) rotate(180)" fill="#e0e0e0" />
      <rect id="Rectangle_315" data-name="Rectangle 315" width="114.67" height="6.67"
          transform="translate(64.57 229.33)" fill="#ebebeb" />
      <rect id="Rectangle_316" data-name="Rectangle 316" width="251.01" height="6.67"
          transform="translate(430.24 236) rotate(180)" fill="#e0e0e0" />
      <rect id="Rectangle_317" data-name="Rectangle 317" width="114.67" height="6.67"
          transform="translate(64.57 269.33)" fill="#ebebeb" />
      <rect id="Rectangle_318" data-name="Rectangle 318" width="251.01" height="6.67"
          transform="translate(430.24 276) rotate(180)" fill="#e0e0e0" />
      <rect id="Rectangle_319" data-name="Rectangle 319" width="114.67" height="6.67"
          transform="translate(64.57 309.33)" fill="#ebebeb" />
      <rect id="Rectangle_320" data-name="Rectangle 320" width="251.01" height="6.67"
          transform="translate(430.24 316) rotate(180)" fill="#e0e0e0" />
      <rect id="Rectangle_321" data-name="Rectangle 321" width="114.67" height="6.67"
          transform="translate(64.57 349.33)" fill="#ebebeb" />
      <rect id="Rectangle_322" data-name="Rectangle 322" width="251.01" height="6.67"
          transform="translate(430.24 356) rotate(180)" fill="#e0e0e0" />
      <rect id="Rectangle_323" data-name="Rectangle 323" width="144" height="71"
          transform="translate(101.13 35)" fill="#f5f5f5" />
      <rect id="Rectangle_324" data-name="Rectangle 324" width="12.22" height="10"
          transform="translate(167.01 106)" fill="#e0e0e0" />
      <rect id="Rectangle_325" data-name="Rectangle 325" width="144" height="7.72"
          transform="translate(101.13 98.28)" fill="#f0f0f0" />
      <rect id="Rectangle_326" data-name="Rectangle 326" width="144" height="7.72"
          transform="translate(101.13 35)" fill="#f0f0f0" />
      <rect id="Rectangle_327" data-name="Rectangle 327" width="71.39" height="45.06"
          transform="translate(304.74 64.6)" fill="#f5f5f5" />
      <rect id="Rectangle_328" data-name="Rectangle 328" width="7.76" height="6.35"
          transform="translate(336.55 109.65)" fill="#e0e0e0" />
      <rect id="Rectangle_329" data-name="Rectangle 329" width="71.39" height="4.9"
          transform="translate(304.74 104.76)" fill="#f0f0f0" />
      <rect id="Rectangle_330" data-name="Rectangle 330" width="71.39" height="4.9"
          transform="translate(304.74 64.6)" fill="#f0f0f0" />
      <rect id="Rectangle_331" data-name="Rectangle 331" width="25.25" height="25.25"
          transform="translate(356.63 124.08)" fill="#e6e6e6" />
      <rect id="Rectangle_332" data-name="Rectangle 332" width="24.42" height="25.25"
          transform="translate(406.29 149.34) rotate(180)" fill="#fff" />
      <rect id="Rectangle_333" data-name="Rectangle 333" width="25.25" height="25.25"
          transform="translate(326.63 124.08)" fill="#e6e6e6" />
      <rect id="Rectangle_334" data-name="Rectangle 334" width="24.42" height="25.25"
          transform="translate(376.29 149.34) rotate(180)" fill="#fff" />
      <rect id="Rectangle_335" data-name="Rectangle 335" width="25.25" height="25.25"
          transform="translate(296.63 124.08)" fill="#e6e6e6" />
      <rect id="Rectangle_336" data-name="Rectangle 336" width="24.42" height="25.25"
          transform="translate(346.29 149.34) rotate(180)" fill="#fff" />
      <rect id="Rectangle_337" data-name="Rectangle 337" width="25.25" height="25.25"
          transform="translate(266.63 124.08)" fill="#e6e6e6" />
      <rect id="Rectangle_338" data-name="Rectangle 338" width="24.42" height="25.25"
          transform="translate(316.29 149.34) rotate(180)" fill="#fff" />
      <rect id="Rectangle_339" data-name="Rectangle 339" width="10.58" height="26.56"
          transform="translate(103.09 189.34) rotate(180)" fill="#f0f0f0" />
      <rect id="Rectangle_340" data-name="Rectangle 340" width="10.23" height="26.56"
          transform="translate(82.29 162.77)" fill="#fff" />
      <rect id="Rectangle_341" data-name="Rectangle 341" width="10.58" height="26.56"
          transform="translate(115.66 189.34) rotate(180)" fill="#f0f0f0" />
      <rect id="Rectangle_342" data-name="Rectangle 342" width="10.23" height="26.56"
          transform="translate(94.85 162.77)" fill="#fff" />
      <rect id="Rectangle_343" data-name="Rectangle 343" width="10.58" height="26.56"
          transform="translate(128.22 189.34) rotate(180)" fill="#f0f0f0" />
      <rect id="Rectangle_344" data-name="Rectangle 344" width="10.23" height="26.56"
          transform="translate(107.42 162.77)" fill="#fff" />
      <rect id="Rectangle_345" data-name="Rectangle 345" width="10.58" height="26.56"
          transform="translate(140.8 189.34) rotate(180)" fill="#f0f0f0" />
      <rect id="Rectangle_346" data-name="Rectangle 346" width="10.23" height="26.56"
          transform="translate(119.99 162.77)" fill="#fff" />
      <rect id="Rectangle_347" data-name="Rectangle 347" width="14.24" height="17.89"
          transform="translate(115.41 309.34) rotate(180)" fill="#f0f0f0" />
      <rect id="Rectangle_348" data-name="Rectangle 348" width="13.77" height="17.89"
          transform="translate(87.4 291.44)" fill="#fff" />
      <rect id="Rectangle_349" data-name="Rectangle 349" width="14.24" height="17.89"
          transform="translate(132.33 309.34) rotate(180)" fill="#f0f0f0" />
      <rect id="Rectangle_350" data-name="Rectangle 350" width="13.77" height="17.89"
          transform="translate(104.32 291.44)" fill="#fff" />
      <rect id="Rectangle_351" data-name="Rectangle 351" width="14.24" height="17.89"
          transform="translate(149.25 309.34) rotate(180)" fill="#f0f0f0" />
      <rect id="Rectangle_352" data-name="Rectangle 352" width="13.77" height="17.89"
          transform="translate(121.24 291.44)" fill="#fff" />
      <rect id="Rectangle_353" data-name="Rectangle 353" width="14.24" height="17.89"
          transform="translate(166.16 309.34) rotate(180)" fill="#f0f0f0" />
      <rect id="Rectangle_354" data-name="Rectangle 354" width="13.77" height="17.89"
          transform="translate(138.16 291.44)" fill="#fff" />
      <rect id="Rectangle_355" data-name="Rectangle 355" width="13.99" height="25.25"
          transform="translate(372.6 204.08)" fill="#e6e6e6" />
      <rect id="Rectangle_356" data-name="Rectangle 356" width="13.53" height="25.25"
          transform="translate(400.13 229.34) rotate(180)" fill="#fff" />
      <rect id="Rectangle_357" data-name="Rectangle 357" width="13.99" height="25.25"
          transform="translate(355.97 204.08)" fill="#e6e6e6" />
      <rect id="Rectangle_358" data-name="Rectangle 358" width="13.53" height="25.25"
          transform="translate(383.49 229.34) rotate(180)" fill="#fff" />
      <rect id="Rectangle_359" data-name="Rectangle 359" width="13.99" height="25.25"
          transform="translate(339.34 204.08)" fill="#e6e6e6" />
      <rect id="Rectangle_360" data-name="Rectangle 360" width="13.53" height="25.25"
          transform="translate(366.87 229.34) rotate(180)" fill="#fff" />
      <rect id="Rectangle_361" data-name="Rectangle 361" width="13.99" height="25.25"
          transform="translate(322.72 204.08)" fill="#e6e6e6" />
      <rect id="Rectangle_362" data-name="Rectangle 362" width="13.53" height="25.25"
          transform="translate(350.25 229.34) rotate(180)" fill="#fff" />
      <rect id="Rectangle_363" data-name="Rectangle 363" width="13.99" height="25.25"
          transform="translate(286.34 204.08)" fill="#e6e6e6" />
      <rect id="Rectangle_364" data-name="Rectangle 364" width="13.53" height="25.25"
          transform="translate(313.87 229.34) rotate(180)" fill="#fff" />
      <rect id="Rectangle_365" data-name="Rectangle 365" width="13.99" height="25.25"
          transform="translate(269.71 204.08)" fill="#e6e6e6" />
      <rect id="Rectangle_366" data-name="Rectangle 366" width="13.53" height="25.25"
          transform="translate(297.24 229.34) rotate(180)" fill="#fff" />
      <rect id="Rectangle_367" data-name="Rectangle 367" width="13.99" height="25.25"
          transform="translate(253.09 204.08)" fill="#e6e6e6" />
      <rect id="Rectangle_368" data-name="Rectangle 368" width="13.53" height="25.25"
          transform="translate(280.61 229.34) rotate(180)" fill="#fff" />
      <rect id="Rectangle_369" data-name="Rectangle 369" width="13.99" height="25.25"
          transform="translate(236.46 204.08)" fill="#e6e6e6" />
      <rect id="Rectangle_370" data-name="Rectangle 370" width="13.53" height="25.25"
          transform="translate(263.99 229.34) rotate(180)" fill="#fff" />
      <rect id="Rectangle_371" data-name="Rectangle 371" width="34.1" height="17.83"
          transform="translate(329.69 291.45)" fill="#e6e6e6" />
      <rect id="Rectangle_372" data-name="Rectangle 372" width="32.97" height="17.83"
          transform="translate(396.76 309.27) rotate(180)" fill="#fff" />
      <rect id="Rectangle_373" data-name="Rectangle 373" width="34.1" height="17.83"
          transform="translate(289.17 291.45)" fill="#e6e6e6" />
      <rect id="Rectangle_374" data-name="Rectangle 374" width="32.97" height="17.83"
          transform="translate(356.25 309.27) rotate(180)" fill="#fff" />
      <rect id="Rectangle_375" data-name="Rectangle 375" width="34.1" height="17.83"
          transform="translate(248.66 291.45)" fill="#e6e6e6" />
      <rect id="Rectangle_376" data-name="Rectangle 376" width="32.97" height="17.83"
          transform="translate(315.73 309.27) rotate(180)" fill="#fff" />
      <rect id="Rectangle_377" data-name="Rectangle 377" width="34.1" height="17.83"
          transform="translate(208.15 291.45)" fill="#e6e6e6" />
      <rect id="Rectangle_378" data-name="Rectangle 378" width="32.97" height="17.83"
          transform="translate(275.22 309.27) rotate(180)" fill="#fff" />
      <circle id="Ellipse_35" data-name="Ellipse 35" cx="11.25" cy="11.25" r="11.25"
          transform="translate(197.46 166.83)" fill="#e6e6e6" />
      <circle id="Ellipse_36" data-name="Ellipse 36" cx="11.25" cy="11.25" r="11.25"
          transform="translate(227.46 166.83)" fill="#e6e6e6" />
      <circle id="Ellipse_37" data-name="Ellipse 37" cx="11.25" cy="11.25" r="11.25"
          transform="translate(257.46 166.83)" fill="#e6e6e6" />
      <circle id="Ellipse_38" data-name="Ellipse 38" cx="11.25" cy="11.25" r="11.25"
          transform="translate(287.46 166.83)" fill="#e6e6e6" />
      <circle id="Ellipse_39" data-name="Ellipse 39" cx="7.42" cy="7.42" r="7.42"
          transform="translate(79.251 256.411) rotate(-13.28)" fill="#e6e6e6" />
      <circle id="Ellipse_40" data-name="Ellipse 40" cx="7.42" cy="7.42" r="7.42"
          transform="translate(99.032 256.407) rotate(-13.28)" fill="#e6e6e6" />
      <circle id="Ellipse_41" data-name="Ellipse 41" cx="7.42" cy="7.42" r="7.42"
          transform="translate(118.055 265.932) rotate(-67.5)" fill="#e6e6e6" />
      <circle id="Ellipse_42" data-name="Ellipse 42" cx="7.42" cy="7.42" r="7.42"
          transform="translate(137.036 261.923) rotate(-45)" fill="#e6e6e6" />
      <circle id="Ellipse_43" data-name="Ellipse 43" cx="7.71" cy="7.71" r="7.71"
          transform="translate(322.808 345.806) rotate(-67.5)" fill="#fff" />
      <circle id="Ellipse_44" data-name="Ellipse 44" cx="7.686" cy="7.686" r="7.686"
          transform="translate(343.11 334.727) rotate(-13.339)" fill="#fff" />
      <circle id="Ellipse_45" data-name="Ellipse 45" cx="7.71" cy="7.71" r="7.71"
          transform="translate(363.906 345.805) rotate(-67.5)" fill="#fff" />
      <circle id="Ellipse_46" data-name="Ellipse 46" cx="7.71" cy="7.71" r="7.71"
          transform="translate(384.46 345.799) rotate(-67.5)" fill="#fff" />
      <circle id="Ellipse_47" data-name="Ellipse 47" cx="7.71" cy="7.71" r="7.71"
          transform="translate(332.562 330.867) rotate(-45)" fill="#fff" />
      <circle id="Ellipse_48" data-name="Ellipse 48" cx="7.71" cy="7.71" r="7.71"
          transform="translate(353.94 335.038) rotate(-67.5)" fill="#fff" />
      <circle id="Ellipse_49" data-name="Ellipse 49" cx="7.686" cy="7.686" r="7.686"
          transform="translate(374.141 323.99) rotate(-13.339)" fill="#fff" />
      <circle id="Ellipse_50" data-name="Ellipse 50" cx="7.71" cy="7.71" r="7.71"
          transform="translate(222.204 341.633) rotate(-45)" fill="#fff" />
      <circle id="Ellipse_51" data-name="Ellipse 51" cx="7.71" cy="7.71" r="7.71"
          transform="translate(243.578 345.805) rotate(-67.5)" fill="#fff" />
      <circle id="Ellipse_52" data-name="Ellipse 52" cx="7.71" cy="7.71" r="7.71"
          transform="translate(264.919 335.916) rotate(-13.28)" fill="#fff" />
      <circle id="Ellipse_53" data-name="Ellipse 53" cx="7.71" cy="7.71" r="7.71"
          transform="translate(284.676 345.794) rotate(-67.5)" fill="#fff" />
      <circle id="Ellipse_54" data-name="Ellipse 54" cx="7.71" cy="7.71" r="7.71"
          transform="translate(233.602 335.039) rotate(-67.5)" fill="#fff" />
      <circle id="Ellipse_55" data-name="Ellipse 55" cx="7.71" cy="7.71" r="7.71"
          transform="translate(253.328 330.872) rotate(-45)" fill="#fff" />
      <circle id="Ellipse_56" data-name="Ellipse 56" cx="7.71" cy="7.71" r="7.71"
          transform="translate(274.7 335.037) rotate(-67.5)" fill="#fff" />
      <path id="Path_2476" data-name="Path 2476" d="M376.96,249.2l5.65,20.13h-29.6Z"
          fill="#e0e0e0" />
      <path id="Path_2477" data-name="Path 2477" d="M376.96,249.2l-10.29,20.13H397.9Z"
          fill="#fff" />
      <path id="Path_2478" data-name="Path 2478" d="M330.15,249.2l5.65,20.13H306.19Z"
          fill="#e0e0e0" />
      <path id="Path_2479" data-name="Path 2479" d="M330.15,249.2l-10.29,20.13h31.23Z"
          fill="#fff" />
      <path id="Path_2480" data-name="Path 2480" d="M283.33,249.2l5.66,20.13H259.38Z"
          fill="#e0e0e0" />
      <path id="Path_2481" data-name="Path 2481" d="M283.33,249.2l-10.29,20.13h31.24Z"
          fill="#fff" />
      <path id="Path_2482" data-name="Path 2482" d="M90.7,209.78l-3.15,19.55h16.51Z"
          fill="#f5f5f5" />
      <path id="Path_2483" data-name="Path 2483" d="M90.7,209.78l5.74,19.55H79.02Z" fill="#fff" />
      <path id="Path_2484" data-name="Path 2484" d="M116.81,209.78l-3.15,19.55h16.51Z"
          fill="#f5f5f5" />
      <path id="Path_2485" data-name="Path 2485" d="M116.81,209.78l5.74,19.55H105.13Z"
          fill="#fff" />
      <path id="Path_2486" data-name="Path 2486" d="M142.92,209.78l-3.16,19.55h16.52Z"
          fill="#f5f5f5" />
      <path id="Path_2487" data-name="Path 2487" d="M142.92,209.78l5.74,19.55H131.24Z"
          fill="#fff" />
      <path id="Path_2488" data-name="Path 2488" d="M236.52,249.2l5.65,20.13h-29.6Z"
          fill="#e0e0e0" />
      <path id="Path_2489" data-name="Path 2489" d="M236.52,249.2l-10.29,20.13h31.24Z"
          fill="#fff" />
    </g>
    <g id="freepik--Shadow--inject-34">
      <ellipse id="freepik--path--inject-34" cx="193.89" cy="11.32" rx="193.89" ry="11.32"
          transform="translate(56.11 404.92)" fill="#f5f5f5" />
    </g>
    <g id="freepik--cash-register--inject-34">
      <path id="Path_2490" data-name="Path 2490"
          d="M292,285.69h82.79a6.37,6.37,0,0,1,6.37,6.37h0a6.37,6.37,0,0,1-6.37,6.37H292Z"
          fill="#07635d" />
      <path id="Path_2491" data-name="Path 2491"
          d="M292,285.69h82.79a6.37,6.37,0,0,1,6.37,6.37h0a6.37,6.37,0,0,1-6.37,6.37H292Z"
          fill="#fff" opacity="0.6" />
      <circle id="Ellipse_57" data-name="Ellipse 57" cx="9.57" cy="9.57" r="9.57"
          transform="translate(355.16 253.073) rotate(-76.72)" fill="#07635d" />
      <circle id="Ellipse_58" data-name="Ellipse 58" cx="9.57" cy="9.57" r="9.57"
          transform="translate(355.16 253.073) rotate(-76.72)" fill="#fff" opacity="0.8" />
      <path id="Path_2492" data-name="Path 2492" d="M300.81,247.25h79.11l-7.58,38.44H308.38Z"
          fill="#263238" />
      <path id="Path_2493" data-name="Path 2493"
          d="M298.6,243.56h83.52a1.18,1.18,0,0,1,1.14,1.51l-1,3.41a1.19,1.19,0,0,1-1.14.85H299.59a1.19,1.19,0,0,1-1.14-.85l-1-3.41a1.18,1.18,0,0,1,1.15-1.51Z"
          fill="#07635d" />
      <path id="Path_2494" data-name="Path 2494"
          d="M298.6,243.56h83.52a1.18,1.18,0,0,1,1.14,1.51l-1,3.41a1.19,1.19,0,0,1-1.14.85H299.59a1.19,1.19,0,0,1-1.14-.85l-1-3.41a1.18,1.18,0,0,1,1.15-1.51Z"
          fill="#fff" opacity="0.6" />
      <rect id="Rectangle_379" data-name="Rectangle 379" width="38" height="4.56"
          transform="translate(308.53 239)" fill="#07635d" />
      <rect id="Rectangle_380" data-name="Rectangle 380" width="38" height="4.56"
          transform="translate(308.53 239)" opacity="0.2" />
      <path id="Path_2495" data-name="Path 2495"
          d="M330.36,251.88a1.23,1.23,0,0,1-1.33.84c-3-.51-4.48-3.24-3.39-6.53l7.65-23.09c1.21-3.65,5.16-6.61,8.8-6.61h13.55c3.64,0,5.62,3,4.42,6.61l-6.79,20.46H351l6.78-20.46c.8-2.39-.5-4.34-2.89-4.34H341.34a6.61,6.61,0,0,0-5.78,4.34l-7.65,23.09c-.65,1.95.1,3.61,1.69,4.15a1.21,1.21,0,0,1,.76,1.54Z"
          fill="#07635d" />
      <rect id="Rectangle_381" data-name="Rectangle 381" width="146.1" height="175.62" rx="8.65"
          transform="translate(171.34 240.62)" fill="#07635d" />
      <path id="Path_2496" data-name="Path 2496"
          d="M206.9,306.22H86.9a6.38,6.38,0,0,0-6.37,6.38h0A6.37,6.37,0,0,0,86.9,319h120Z"
          fill="#07635d" />
      <path id="Path_2497" data-name="Path 2497" d="M206.9,322.5l-35.41,16.03V318.96H206.9Z"
          fill="#263238" opacity="0.3" />
      <path id="Path_2498" data-name="Path 2498"
          d="M206.9,306.22H130.47a6.38,6.38,0,0,0-6.37,6.38h0a6.38,6.38,0,0,0,6.37,6.37H206.9Z"
          fill="#fff" opacity="0.7" />
      <rect id="Rectangle_382" data-name="Rectangle 382" width="106.2" height="175.62" rx="8.65"
          transform="translate(211.24 240.62)" fill="#fff" opacity="0.7" />
      <rect id="Rectangle_383" data-name="Rectangle 383" width="10.85" height="97.27"
          transform="translate(127.94 318.97)" fill="#07635d" />
      <rect id="Rectangle_384" data-name="Rectangle 384" width="10.85" height="97.27"
          transform="translate(127.94 318.97)" fill="#fff" opacity="0.7" />
      <path id="Path_2499" data-name="Path 2499" d="M138.79,323.19l-10.85,2.35v-6.58h10.85Z"
          fill="#07635d" opacity="0.3" />
      <rect id="Rectangle_385" data-name="Rectangle 385" width="86.31" height="32.73" rx="2.47"
          transform="translate(221.18 261.38)" fill="#07635d" opacity="0.3" />
      <path id="Path_2500" data-name="Path 2500" d="M159.49,223.41h-59.3l-6.01,82.82H165.5Z"
          fill="#ff725e" />
      <path id="Path_2501" data-name="Path 2501" d="M108.06,223.41h-7.87l-6.01,82.82h15.96Z"
          fill="#263238" opacity="0.3" />
      <path id="Path_2502" data-name="Path 2502"
          d="M133.45,233.51c-5.54,0-10.5-3.89-11.33-9.07a9.19,9.19,0,0,1,1.84-7.15,10.64,10.64,0,0,1,7.47-3.93c5.95-.54,11.51,3.51,12.39,9a9.21,9.21,0,0,1-1.85,7.16,10.6,10.6,0,0,1-7.46,3.93A9.547,9.547,0,0,1,133.45,233.51Zm-.95-18.44h-.91a8.91,8.91,0,0,0-6.24,3.26,7.46,7.46,0,0,0-1.49,5.8c.73,4.61,5.44,8,10.49,7.54a8.91,8.91,0,0,0,6.24-3.26,7.46,7.46,0,0,0,1.49-5.8c-.69-4.29-4.89-7.54-9.58-7.54Z"
          fill="#07635d" />
      <path id="Path_2503" data-name="Path 2503"
          d="M129,233.51h-1.06a10.6,10.6,0,0,1-7.46-3.93,9.16,9.16,0,0,1-1.84-7.16c.87-5.5,6.43-9.55,12.38-9a10.62,10.62,0,0,1,7.47,3.93,9.15,9.15,0,0,1,1.84,7.15C139.47,229.62,134.5,233.51,129,233.51Zm1-18.44c-4.7,0-8.9,3.25-9.59,7.58a7.46,7.46,0,0,0,1.49,5.8,8.91,8.91,0,0,0,6.24,3.26c5.05.45,9.76-2.93,10.5-7.54a7.42,7.42,0,0,0-1.5-5.8,8.89,8.89,0,0,0-6.23-3.26c-.39-.03-.69-.04-.99-.04Z"
          fill="#07635d" />
      <rect id="Rectangle_386" data-name="Rectangle 386" width="17.6" height="130.07"
          transform="translate(218.41 110.56)" fill="#07635d" />
      <path id="Path_2504" data-name="Path 2504" d="M236.01,180.2h-17.6v33.99l17.6-2.17Z"
          fill="#263238" opacity="0.3" />
      <path id="Path_2505" data-name="Path 2505" d="M236.01,111.45h-17.6v9.89l17.6-2.17Z"
          fill="#263238" opacity="0.3" />
      <path id="Path_2506" data-name="Path 2506"
          d="M181.25,204.39l-4.91-71.25a4.39,4.39,0,0,1,4.38-4.69H290.13a4.38,4.38,0,0,1,4.38,4.08l4.9,71.25a4.38,4.38,0,0,1-4.38,4.69H185.62a4.37,4.37,0,0,1-4.37-4.08Z"
          fill="#263238" />
      <path id="Path_2507" data-name="Path 2507"
          d="M288.87,131.7H182.16a2.48,2.48,0,0,0-2.47,2.65l4.72,68.56a2.48,2.48,0,0,0,2.47,2.31H293.59a2.48,2.48,0,0,0,2.48-2.65L291.35,134a2.48,2.48,0,0,0-2.48-2.3Z"
          fill="#07635d" />
      <path id="Path_2508" data-name="Path 2508"
          d="M288.87,131.7H182.16a2.48,2.48,0,0,0-2.47,2.65l4.72,68.56a2.48,2.48,0,0,0,2.47,2.31H293.59a2.48,2.48,0,0,0,2.48-2.65L291.35,134a2.48,2.48,0,0,0-2.48-2.3Z"
          fill="#fff" opacity="0.8" />
      <rect id="Rectangle_387" data-name="Rectangle 387" width="93.66" height="2.38"
          transform="translate(196.29 238.24)" fill="#263238" />
      <path id="Path_2509" data-name="Path 2509" d="M263.88,197.19H193.4l-3.91-56.76h70.48Z"
          fill="#07635d" opacity="0.3" />
      <path id="Path_2510" data-name="Path 2510" d="M284.03,145.51H265.04l-.35-5.08h18.99Z"
          fill="#07635d" opacity="0.3" />
      <path id="Path_2511" data-name="Path 2511" d="M285.43,165.98H266.44l-.99-14.48h18.99Z"
          fill="#07635d" opacity="0.3" />
      <rect id="Rectangle_388" data-name="Rectangle 388" width="35.41" height="26.43"
          transform="translate(208.98 90.11)" fill="#07635d" />
      <rect id="Rectangle_389" data-name="Rectangle 389" width="14.73" height="26.43"
          transform="translate(208.98 90.11)" fill="#263238" opacity="0.3" />
    </g>
    <g id="freepik--Character--inject-34">
      <path id="Path_2512" data-name="Path 2512"
          d="M320.8,203.81l1.95-2.49a3.67,3.67,0,0,1,3.07-1.4l5.56.25a6.91,6.91,0,0,1,5.46,3.15l.74,1.16c-3,4.35-9.37,6.87-9.37,6.87l-1.74.92a3.06,3.06,0,0,1-4.19-1.19l-1.87-3.44a3.52,3.52,0,0,1,.39-3.83Z"
          fill="#ff8b7b" />
      <path id="Path_2513" data-name="Path 2513"
          d="M340.15,153.94c.58.71,1,1.21,1.42,1.81s.84,1.15,1.25,1.72c.82,1.16,1.57,2.34,2.32,3.52a83.561,83.561,0,0,1,4,7.38c.62,1.26,1.18,2.56,1.75,3.86s1.05,2.63,1.51,4a64.476,64.476,0,0,1,2.32,8.33l.11.46a4.469,4.469,0,0,1,.1,1,14.31,14.31,0,0,1-1,5.22,18.591,18.591,0,0,1-2.15,3.89,26.291,26.291,0,0,1-5.18,5.24,39.5,39.5,0,0,1-5.58,3.58,40.459,40.459,0,0,1-6,2.59,3.77,3.77,0,0,1-3.87-6.25l.25-.24c1.23-1.23,2.65-2.56,3.88-3.86a46.89,46.89,0,0,0,3.44-3.95,18,18,0,0,0,2.35-3.75c.5-1.12.44-2,.29-2l.21,1.42c-.75-2.16-1.55-4.3-2.52-6.43s-2-4.22-3.16-6.3-2.35-4.12-3.64-6.12c-.64-1-1.3-2-2-3l-1-1.44-.92-1.3-.24-.34a7.5,7.5,0,0,1,11.94-9.05Z"
          fill="#ff8b7b" />
      <path id="Path_2514" data-name="Path 2514"
          d="M326.43,145.46c-2.82,6.4-2.64,14.39,6,26.61,5.74.63,16.36-6.83,16.36-6.83S341.5,144.79,326.43,145.46Z"
          fill="#263238" />
      <path id="Path_2515" data-name="Path 2515"
          d="M321.62,123.21c-1.67,6.2-3.73,17.56.29,21.69,0,0-5.87-.88-18.33,6.83-3.61-5.18-.93-6.83-.93-6.83,7-1.65,7.24-6.77,6.39-11.59Z"
          fill="#ff8b7b" />
      <path id="Path_2516" data-name="Path 2516"
          d="M296.26,149.51c1.85-4,6.21-7.81,9.22-7.24s4.84,1.51,6.62,0,6.18-3.71,8.42-1.22c3.15,3.48,7.92,1,6.12,4.81C324.7,150,296.26,149.51,296.26,149.51Z"
          fill="#07635d" />
      <path id="Path_2517" data-name="Path 2517"
          d="M299.09,111.83c-.12.85-.66,1.51-1.2,1.47s-.88-.76-.76-1.61.66-1.5,1.2-1.46S299.22,111,299.09,111.83Z"
          fill="#263238" />
      <path id="Path_2518" data-name="Path 2518"
          d="M298.56,110.29l-1.9-.73S297.45,111.22,298.56,110.29Z" fill="#263238" />
      <path id="Path_2519" data-name="Path 2519"
          d="M298.91,113.43a25,25,0,0,1-3.74,5.19c.95,1.12,2.88.78,2.88.78Z" fill="#ff5652" />
      <path id="Path_2520" data-name="Path 2520"
          d="M297.68,105.09a.5.5,0,0,1-.06-.36.51.51,0,0,1,.62-.33,5.2,5.2,0,0,1,3.6,2.92.44.44,0,0,1-.31.6.54.54,0,0,1-.65-.31,4.17,4.17,0,0,0-2.88-2.28.56.56,0,0,1-.32-.24Z"
          fill="#263238" />
      <path id="Path_2521" data-name="Path 2521"
          d="M326.92,110.77c-1.89,10-2.47,14.27-8.18,19.07-8.59,7.23-20.4,3.41-21.52-6.8-1-9.18,2.23-24,12.54-27.31a13,13,0,0,1,17.16,15.04Z"
          fill="#ff8b7b" />
      <path id="Path_2522" data-name="Path 2522"
          d="M304.5,114c-3.62-5.67-7.54-12.75-5.08-17.67s8.05-3.75,8.05-3.75S318.3,86.5,328,94.42c12.86,10.53-.93,22.12-4.34,32.16C319.89,137.63,300.45,124.25,304.5,114Z"
          fill="#263238" />
      <path id="Path_2523" data-name="Path 2523"
          d="M359.92,95.62c-5.23-19.45-28.17-10.51-34.84,1l2.72.71c27.37-17.66,13.89,7.87,14.12,18.28s10.55,16.82,10.55,16.82S365.14,115.06,359.92,95.62Z"
          fill="#263238" />
      <path id="Path_2524" data-name="Path 2524"
          d="M353,130c-2.92,0-7-.55-9.66-3.24-2.4-2.43-3.15-6.14-2.21-11,.3-1.54.78-3.35,1.28-5.26,1.58-6,3.55-13.38.45-16-2.18-1.85-6.77-1.2-13.65,1.91a.24.24,0,0,1-.33-.12.25.25,0,0,1,.13-.33c7.16-3.25,11.8-3.85,14.17-1.84,3.34,2.82,1.42,10.09-.28,16.51-.51,1.9-1,3.7-1.28,5.23-.9,4.72-.2,8.28,2.08,10.59,4.25,4.3,12.69,2.84,12.78,2.82a.253.253,0,0,1,.08.5A22.943,22.943,0,0,1,353,130Z"
          fill="#263238" />
      <path id="Path_2525" data-name="Path 2525"
          d="M328.39,92.34c.25-1.27-2.95-.74-3.1.39s-.57.5-1.82,2.15-1.42,3.59,2.68,4.87c2.6.81,3-1.19,4.33-2.19.73-.54,1.55-.82,2.08-1.23a.83.83,0,0,0-.42-1.48C330.46,94.71,328.13,93.59,328.39,92.34Z"
          fill="#07635d" />
      <path id="Path_2526" data-name="Path 2526"
          d="M306.34,117.56a7,7,0,0,1-4.42,3.54c-2.35.52-3.24-2.19-2.35-4.83.8-2.36,3-5.49,5.24-4.81S307.61,115.27,306.34,117.56Z"
          fill="#ff8b7b" />
      <path id="Path_2527" data-name="Path 2527"
          d="M349.13,421.17c7.77-1.16,7.92-2.45,12.09-3.91,3.57-1.26,4.57-1.08,7.45-2.05,2.41-.81,1.59-3.1,0-5.54-.79-1.22-.91-2.38-1.78-4.55l-11.81,1.75c-1.14,3.3-1.55,7.52-8.29,9.93C342.78,418.24,346,421.63,349.13,421.17Z"
          fill="#263238" />
      <path id="Path_2528" data-name="Path 2528"
          d="M277.11,421.2c7.73,0,9.21-.51,13.56-.66,3.72-.13,4.33.66,8.1.66,2.5,0,2.85-2.82,1.93-4.93-.71-1.64-.82-3.61-1.34-5.74H288.71c-1.92,3.37-7.16,5.87-13,6.29C271.51,417.13,274,421.2,277.11,421.2Z"
          fill="#263238" />
      <path id="Path_2529" data-name="Path 2529"
          d="M286.14,210.63s-1.54,55.58,1.76,90.88c-.21,33.13.81,109,.81,109,.26,1.69,9.14,1,10.65,0,0,0,16.65-55.27,9.26-109,18.49-56.06,14.5-90.88,14.5-90.88Z"
          fill="#263238" />
      <path id="Path_2530" data-name="Path 2530"
          d="M297.23,210.63s18.06,62.73,25.38,93.54c7.7,32.35,30.58,81.26,32.48,102.7,2,.79,8.39-.09,11.81-1.75,0,0-3.13-68.37-21.73-99.52,4.2-76.64-16.6-95-16.6-95Z"
          fill="#263238" />
      <path id="Path_2531" data-name="Path 2531"
          d="M353.55,402.58a31.144,31.144,0,0,1,.23,4.43.93.93,0,0,0,.93,1c4.42,0,10.53-1.88,12.46-2.54a.9.9,0,0,0,.62-.85v-4.19a.93.93,0,0,0-1.08-.91l-12.44,2.09a.9.9,0,0,0-.72.97Z"
          fill="#07635d" />
      <path id="Path_2532" data-name="Path 2532"
          d="M287.49,405.86c0,1.15-.1,3.2-.21,4.71a1,1,0,0,0,.85,1,63.24,63.24,0,0,0,11.75-.13.86.86,0,0,0,.77-.7l.8-4.13a1,1,0,0,0-.91-1.13L288.4,405a.86.86,0,0,0-.91.86Z"
          fill="#07635d" />
      <path id="Path_2533" data-name="Path 2533"
          d="M283.74,160.68a190.6,190.6,0,0,0,.28,19.41c.33,8.43.91,16.72,2.12,30.54h42.43c-.85-11.95.54-25.57,8.16-52.46a9.9,9.9,0,0,0-8.46-12.87c-1.68-.17-3.47-.31-5.3-.4a135.917,135.917,0,0,0-19.26,0c-2.1.19-4.27.46-6.34.75A16,16,0,0,0,283.74,160.68Z"
          fill="#263238" />
      <path id="Path_2534" data-name="Path 2534"
          d="M328.36,205.38c-8.49,2.17-21.41,2.79-42.62.53.51,11.25-4.44,86.9-4.44,86.9s43,9.45,67.31-3.38C350.18,232.26,328.36,205.38,328.36,205.38Z"
          fill="#ff725e" />
      <path id="Path_2535" data-name="Path 2535"
          d="M312.13,251s11.67-10.87,17.43-18.29C329.1,240.49,322.15,247.47,312.13,251Z"
          opacity="0.2" />
      <path id="Path_2536" data-name="Path 2536"
          d="M247.75,160.62l2.82,1.43a3.68,3.68,0,0,1,2,2.74l.83,5.5a6.86,6.86,0,0,1-2,6l-1,1c-4.84-2.06-8.56-7.85-8.56-7.85l-1.24-1.53a3.06,3.06,0,0,1,.35-4.35l3-2.5a3.52,3.52,0,0,1,3.8-.44Z"
          fill="#ff8b7b" />
      <path id="Path_2537" data-name="Path 2537"
          d="M298.4,161.62c-.31.86-.54,1.46-.81,2.15s-.56,1.31-.84,2c-.56,1.3-1.18,2.55-1.81,3.8a77.753,77.753,0,0,1-4.22,7.28c-.76,1.18-1.57,2.34-2.39,3.49s-1.7,2.27-2.63,3.36a62.669,62.669,0,0,1-5.92,6.3l-.28.27a5.1,5.1,0,0,1-.83.64,11.43,11.43,0,0,1-4,1.54,12.6,12.6,0,0,1-3.58.14,18.08,18.08,0,0,1-5.26-1.46,33,33,0,0,1-7.23-4.55,57.383,57.383,0,0,1-5.66-5.3,60.525,60.525,0,0,1-4.87-5.86,3.76,3.76,0,0,1,5.1-5.36l.17.11c1.86,1.21,3.83,2.53,5.75,3.71s3.86,2.33,5.76,3.3a26.3,26.3,0,0,0,5.36,2.17,4.07,4.07,0,0,0,1.67.16c.13,0,.12-.1,0-.1a1.56,1.56,0,0,0-.68.18l-1.1.92c1.46-1.76,2.88-3.56,4.19-5.49s2.58-3.91,3.75-6,2.31-4.15,3.36-6.29c.53-1.06,1-2.14,1.53-3.21l.71-1.6.64-1.45.17-.38a7.5,7.5,0,0,1,13.93,5.53Z"
          fill="#ff8b7b" />
      <path id="Path_2538" data-name="Path 2538"
          d="M298.54,145.49c-6.93.9-13.67,5.2-19.64,18.94,2.44,5.24,14.32,10.47,14.32,10.47S306.92,158,298.54,145.49Z"
          fill="#263238" />
    </g>
  </g>
</svg>
