<svg xmlns="http://www.w3.org/2000/svg" width="425" height="440.58" viewBox="0 0 425 440.58">
    <g id="searchData" transform="translate(-37.5 -24.14)">
        <g id="freepik--background-complete--inject-5">
            <path id="Path_165" data-name="Path 165"
                d="M94.25,162.32h-4a3.16,3.16,0,0,0-1.22.13,1.95,1.95,0,0,0-1.19,1.5,3.42,3.42,0,0,0,0,.72v.74a3.36,3.36,0,0,1-.05.77,2,2,0,0,1-.9,1.3,1.87,1.87,0,0,1-.8.28H70.46a2.29,2.29,0,0,1-.58-.06,1.88,1.88,0,0,1-1-.62,2,2,0,0,1-.49-1.09v-1.22a3.18,3.18,0,0,0-.12-1.19,1.88,1.88,0,0,0-1.89-1.26H57a6.39,6.39,0,0,0-2.72.51A6.46,6.46,0,0,0,52,164.55a6.21,6.21,0,0,0-1.28,2.58c-.06.24-.08.49-.12.73a3.207,3.207,0,0,0,0,.62V268a6.15,6.15,0,0,0,2.65,5.27,6.43,6.43,0,0,0,4,1.09H97.91a6.13,6.13,0,0,0,3.51-1.36,6.271,6.271,0,0,0,1.27-1.4,5.93,5.93,0,0,0,.77-1.7,6.44,6.44,0,0,0,.24-1.85V168.7a6.4,6.4,0,0,0-.45-2.5,6,6,0,0,0-1.18-1.85,5.85,5.85,0,0,0-1.41-1.15,5.93,5.93,0,0,0-2.32-.82,1.8,1.8,0,0,1-.63-.06H94.25Z"
                fill="#fafafa" />
            <path id="Path_166" data-name="Path 166"
                d="M445.92,162.32h-4.05a3.2,3.2,0,0,0-1.22.13,2,2,0,0,0-1.19,1.5,5.623,5.623,0,0,0,0,.72v.74a4,4,0,0,1,0,.77,2,2,0,0,1-.91,1.3,1.83,1.83,0,0,1-.79.28H422.14a2.41,2.41,0,0,1-.59-.06,1.89,1.89,0,0,1-1-.62,2.1,2.1,0,0,1-.5-1.09v-1.22a3.18,3.18,0,0,0-.12-1.19,1.88,1.88,0,0,0-1.89-1.26H408.7a6.157,6.157,0,0,0-6.28,4.78c-.07.24-.08.49-.13.73a2.568,2.568,0,0,0,0,.62V268a6.431,6.431,0,0,0,.24,2,6.17,6.17,0,0,0,2.41,3.31,6.4,6.4,0,0,0,4,1.09h40.67a6.16,6.16,0,0,0,3.51-1.36,6.52,6.52,0,0,0,1.27-1.4,5.929,5.929,0,0,0,.77-1.7,6.438,6.438,0,0,0,.24-1.85V168.75a6.23,6.23,0,0,0-1.63-4.35,6.236,6.236,0,0,0-3.74-1.97,1.857,1.857,0,0,1-.63-.06h-3.55Z"
                fill="#fafafa" />
            <path id="Path_167" data-name="Path 167"
                d="M216.31,82.83a20.16,20.16,0,0,1,.13,5.37l4.14,2.8-3,7.69-4.9-.69a20.07,20.07,0,0,1-3.7,3.9l1,4.88-7.54,3.35-3-4a19.75,19.75,0,0,1-5.37.13l-2.78,4.14-7.69-3,.72-4.93a20.37,20.37,0,0,1-3.89-3.71l-4.89,1-3.34-7.54,4-3a20.15,20.15,0,0,1-.13-5.37l-4.14-2.77,3-7.7,4.93.72a20,20,0,0,1,3.7-3.89l-1-4.89L190.08,62l3,4a20.59,20.59,0,0,1,5.37-.13l2.78-4.14,7.69,3-.72,4.93a20,20,0,0,1,3.89,3.7l4.89-1,3.34,7.53-4,3Zm-11.83-.06a8.83,8.83,0,1,0,.18,6.764,8.85,8.85,0,0,0-.18-6.764Z"
                fill="#e0e0e0" fill-rule="evenodd" />
            <path id="Path_168" data-name="Path 168"
                d="M210.31,38.12a13.64,13.64,0,0,1,.09,3.55l2.73,1.84-2,5.08-3.26-.47a13.24,13.24,0,0,1-2.45,2.57l.64,3.23-5,2.21-2-2.64a13.64,13.64,0,0,1-3.55.09l-1.83,2.73-5.09-2,.48-3.26a13.579,13.579,0,0,1-2.58-2.45l-3.23.64-2.21-5,2.64-2a13.209,13.209,0,0,1-.08-3.55L181,37l2-5.09,3.26.48a13.24,13.24,0,0,1,2.45-2.57L188,26.54l5-2.21,2,2.64a13.22,13.22,0,0,1,3.55-.09l1.84-2.74,5.08,2-.48,3.26a13.29,13.29,0,0,1,2.58,2.45l3.23-.64,2.21,5-2.64,2Zm-7.82,0a79.121,79.121,0,1,0,0-.04Z"
                fill="#f5f5f5" fill-rule="evenodd" />
            <path id="Path_169" data-name="Path 169"
                d="M352.74,369.07a23.86,23.86,0,0,1,.16,6.31l4.85,3.25-3.48,9-5.78-.84a23.41,23.41,0,0,1-4.34,4.56l1.13,5.74L336.44,401,333,396.34a23.788,23.788,0,0,1-6.3.16l-3.26,4.85-9-3.48.85-5.78a23.741,23.741,0,0,1-4.57-4.34l-5.73,1.13L301,380l4.68-3.49a23.369,23.369,0,0,1-.15-6.3L300.67,367l3.48-9,5.78.85a23.8,23.8,0,0,1,4.35-4.57l-1.13-5.73L322,344.6l3.49,4.68a23.438,23.438,0,0,1,6.31-.15l3.25-4.86,9,3.48-.84,5.78a23.46,23.46,0,0,1,4.56,4.35l5.74-1.13,3.92,8.83ZM338.87,369a10.37,10.37,0,1,0-5.27,13.68A10.37,10.37,0,0,0,338.87,369Z"
                fill="#e0e0e0" fill-rule="evenodd" />
            <path id="Path_170" data-name="Path 170"
                d="M329.4,422.62a14.121,14.121,0,0,1,.09,3.67l2.83,1.89-2,5.26-3.37-.49a13.829,13.829,0,0,1-2.53,2.66l.66,3.34-5.15,2.28-2-2.73a13.709,13.709,0,0,1-3.67.09l-1.9,2.83-5.26-2,.5-3.36a13.6,13.6,0,0,1-2.66-2.54l-3.34.66L299.25,429l2.73-2a13.7,13.7,0,0,1-.09-3.67l-2.83-1.9,2-5.25,3.37.49A13.828,13.828,0,0,1,307,414l-.66-3.34,5.15-2.28,2,2.73a13.308,13.308,0,0,1,3.67-.09l1.9-2.83,5.25,2-.49,3.37a13.85,13.85,0,0,1,2.66,2.53l3.34-.66,2.29,5.15-2.73,2Zm-8.08,0a83.6,83.6,0,1,0,0-.04Z"
                fill="#f5f5f5" fill-rule="evenodd" />
            <path id="Path_171" data-name="Path 171"
                d="M243.44,62.87a11.859,11.859,0,0,1,.08,3.2L246,67.73l-1.77,4.59-2.94-.43a12.5,12.5,0,0,1-2.21,2.33l.57,2.92-4.5,2-1.77-2.38a12.36,12.36,0,0,1-3.21.08L228.5,79.3l-4.59-1.77.43-3A11.879,11.879,0,0,1,222,72.37l-2.92.58-2-4.5,2.38-1.78a12.34,12.34,0,0,1-.08-3.21l-2.47-1.65,1.77-4.6,3,.43a11.83,11.83,0,0,1,2.21-2.32l-.58-2.92,4.5-2,1.78,2.39a11.92,11.92,0,0,1,3.21-.08l1.66-2.47L239,52l-.41,3a12.44,12.44,0,0,1,2.32,2.21l2.92-.57,2,4.5-2.39,1.78Zm-7.06,0a61.767,61.767,0,1,0,0-.04Z"
                fill="#ebebeb" fill-rule="evenodd" />
            <path id="Path_172" data-name="Path 172"
                d="M420.91,395.3a19.3,19.3,0,0,1,12-1.46c2.18.36,4.45,1,5.93,2.65s1.77,4.51.07,5.92a5.77,5.77,0,0,1-3.74.95c-3.18,0-6.7-.6-9.23,1.31-1.45,1.09-2.41,2.9-4.14,3.44a4.1,4.1,0,0,1-4.5-2,7,7,0,0,1-.51-5.16,7.88,7.88,0,0,1,4.12-5.65Z"
                fill="#ebebeb" />
            <path id="Path_173" data-name="Path 173"
                d="M412.54,379.15c2.23,3.19,6.57,2.13,8.59.18s2.86-4.77,3.63-7.46c1.77-6.14,3.56-12.59,2.24-18.85a10.39,10.39,0,0,0-2.41-5.13,5.46,5.46,0,0,0-5.18-1.73c-2.19.58-3.55,2.72-4.54,4.76a44.94,44.94,0,0,0-4.44,19.29c0,3.11.36,6.37,2.11,8.94"
                fill="#ebebeb" />
            <path id="Path_174" data-name="Path 174"
                d="M406.41,383.72a11.61,11.61,0,0,0,1.8-10.68,20.56,20.56,0,0,0-6.32-9.17,34.2,34.2,0,0,0-11.33-6.69,12.07,12.07,0,0,0-5.09-.86,5.36,5.36,0,0,0-4.28,2.58c-1.19,2.28-.05,5,1.19,7.29a86.622,86.622,0,0,0,7.44,11.32c2.23,2.88,4.78,5.72,8.18,7s6.93,1.15,8.73-1.21"
                fill="#ebebeb" />
            <path id="Path_175" data-name="Path 175"
                d="M412.39,427.26a7.152,7.152,0,0,0,.2-1.45q.15-1.59.39-4a54.23,54.23,0,0,1,.89-5.8,45.6,45.6,0,0,1,2.1-6.85,25.179,25.179,0,0,1,3.5-6.19,13.14,13.14,0,0,1,4.42-3.68,12.319,12.319,0,0,1,3.72-1.15,7.506,7.506,0,0,0,1.45-.21,6.2,6.2,0,0,0-1.47,0,11.42,11.42,0,0,0-3.88,1,13.15,13.15,0,0,0-4.67,3.71,25.061,25.061,0,0,0-3.62,6.32,42.092,42.092,0,0,0-2.09,7,50.862,50.862,0,0,0-.78,5.87c-.12,1.68-.17,3-.19,4a7,7,0,0,0,.03,1.43Z"
                fill="#e0e0e0" />
            <path id="Path_176" data-name="Path 176"
                d="M412.66,424.21a3.162,3.162,0,0,0,0-.67v-1.92c0-1.67,0-4.09.08-7.07.15-6,.66-12.38,1.65-21.43.94-8.51,2.2-18.41,3.53-24.85.29-1.47.58-2.79.85-3.94s.48-2.15.69-3,.33-1.38.45-1.87a3.63,3.63,0,0,0,.12-.66,2.809,2.809,0,0,0-.24.63c-.14.48-.33,1.09-.56,1.84s-.5,1.79-.79,2.94-.62,2.47-.93,3.93a216.852,216.852,0,0,0-3.71,23.06c-1,9.07-1.44,17.33-1.48,23.3,0,3,0,5.41.1,7.08.05.79.09,1.42.12,1.93a2.49,2.49,0,0,0,.12.7Z"
                fill="#e0e0e0" />
            <path id="Path_177" data-name="Path 177"
                d="M412.7,408.29a12.4,12.4,0,0,0,0-2c-.08-1.29-.25-3.16-.62-5.44a69.6,69.6,0,0,0-1.77-7.93,64.707,64.707,0,0,0-3.31-9.39,50.1,50.1,0,0,0-9.74-15.16,23.939,23.939,0,0,0-2.29-2.13c-.35-.29-.66-.59-1-.83l-.89-.61a12.3,12.3,0,0,0-1.69-1.08,60.518,60.518,0,0,1,5.54,4.94,52.721,52.721,0,0,1,9.5,15.11,73.8,73.8,0,0,1,3.33,9.3c.87,2.91,1.45,5.59,1.89,7.85s.65,4.11.8,5.39a12.352,12.352,0,0,0,.25,1.98Z"
                fill="#e0e0e0" />
            <path id="Path_178" data-name="Path 178" d="M397.31,436.38l1.59,21.87h28.09l1.6-21.87Z"
                fill="#e0e0e0" />
            <rect id="Rectangle_12" data-name="Rectangle 12" width="37.34" height="8.62"
                transform="translate(394.59 427.76)" fill="#e0e0e0" />
            <path id="Path_179" data-name="Path 179" d="M394.6,457.41v2.39h36.72v-2.39Z"
                fill="#ebebeb" />
            <path id="Path_180" data-name="Path 180" d="M398.07,464l-1.72-4.2h33.63l-2,4.2Z"
                fill="#e0e0e0" />
            <path id="Path_181" data-name="Path 181"
                d="M428.07,443.53a1.994,1.994,0,0,1-.14.2l-.42.56-1.63,2.09-.07.09-.07-.1-4-5.55H422l-4,5.6-.13.17-.13-.16-4.7-5.58h.27l-.26.33-4.19,5.26-.14.17-.13-.18-4-5.6h.23L400,446.38l-.08.1-.07-.11-1.53-2.56-.39-.69a1.062,1.062,0,0,1-.12-.24,1,1,0,0,1,.17.22c.11.17.25.39.43.65l1.6,2.52h-.15l4.8-5.62.12-.15.11.16,4,5.57h-.27l4.19-5.27.26-.33.13-.16.14.16,4.68,5.6h-.26c1.44-2,2.79-3.89,4-5.58l.11-.16.12.16,3.93,5.62h-.14l1.7-2,.46-.53C428,443.58,428.06,443.52,428.07,443.53Z"
                fill="#f5f5f5" />
            <path id="Path_182" data-name="Path 182"
                d="M429,436.24c0,.09-7,.17-15.72.17s-15.72-.08-15.72-.17,7-.18,15.72-.18S429,436.14,429,436.24Z"
                fill="#f5f5f5" />
            <path id="Path_183" data-name="Path 183"
                d="M430.4,460c0,.1-7.65.18-17.08.18s-17.09-.08-17.09-.18,7.65-.17,17.09-.17S430.4,459.94,430.4,460Z"
                fill="#f5f5f5" />
        </g>
        <g id="freepik--Floor--inject-5">
            <path id="Path_184" data-name="Path 184"
                d="M462.5,464.46c0,.15-95.15.26-212.49.26s-212.51-.11-212.51-.26,95.13-.26,212.51-.26S462.5,464.32,462.5,464.46Z"
                fill="#455a64" />
        </g>
        <g id="freepik--Plant--inject-5">
            <rect id="Rectangle_13" data-name="Rectangle 13" width="56.43" height="7.75"
                transform="translate(88.11 417.08)" fill="#263238" />
            <path id="Path_185" data-name="Path 185"
                d="M144.63,424.93H88V417h56.62Zm-56.42-.19h56.23v-7.56H88.21Z" fill="#263238" />
            <path id="Path_186" data-name="Path 186" d="M93.34,422.25l8.12,40.07h30.05l7.86-37.49Z"
                fill="#263238" />
            <path id="Path_187" data-name="Path 187" d="M93.34,458.53l4.33,5.96H134.2l5.17-5.96Z"
                fill="#455a64" />
            <path id="Path_188" data-name="Path 188"
                d="M114.2,423.43c-.11,0-.25-18.57-.31-41.46s0-41.46.08-41.46.25,18.56.32,41.46S114.32,423.42,114.2,423.43Z"
                fill="#263238" />
            <path id="Path_189" data-name="Path 189"
                d="M126.77,377a1.45,1.45,0,0,1-.15.43l-.5,1.2c-.11.27-.24.56-.37.87s-.24.68-.38,1-.28.79-.43,1.21-.27.9-.42,1.38a58.527,58.527,0,0,0-1.58,6.91,85.773,85.773,0,0,0-.87,8.64,115.893,115.893,0,0,0,.45,15.78c.18,2,.36,3.64.49,4.77l.15,1.29a2,2,0,0,1,0,.46,2.07,2.07,0,0,1-.1-.45c-.06-.33-.13-.76-.22-1.28-.18-1.12-.41-2.75-.63-4.76a104.158,104.158,0,0,1-.56-15.83,78.24,78.24,0,0,1,.91-8.68,52,52,0,0,1,1.67-6.93c.16-.49.29-.95.45-1.38s.32-.83.46-1.21.29-.72.41-1,.28-.6.41-.86l.57-1.17a2.14,2.14,0,0,1,.24-.39Z"
                fill="#263238" />
            <path id="Path_190" data-name="Path 190"
                d="M125.33,362a4.81,4.81,0,0,1-.18.61c-.14.43-.34,1-.59,1.73-.13.37-.27.79-.43,1.24l-.45,1.5c-.33,1.07-.71,2.29-1.05,3.67-.18.68-.37,1.4-.57,2.14s-.35,1.54-.53,2.35c-.39,1.62-.68,3.37-1,5.2-.62,3.69-1.17,7.77-1.55,12.07s-.51,8.41-.57,12.15,0,7.11.19,9.94c0,1.41.15,2.69.22,3.81s.13,2.09.2,2.88.11,1.36.14,1.81a2.82,2.82,0,0,1,0,.64,6.209,6.209,0,0,1-.1-.63c-.05-.45-.12-1.05-.21-1.81s-.19-1.75-.28-2.87-.2-2.4-.27-3.82c-.19-2.83-.27-6.2-.28-9.95s.18-7.87.54-12.19.94-8.4,1.58-12.09c.38-1.84.68-3.6,1.09-5.21.19-.81.37-1.6.55-2.35s.4-1.46.59-2.15c.36-1.37.76-2.59,1.11-3.66.18-.53.34-1,.49-1.49s.33-.86.47-1.24c.27-.71.49-1.28.66-1.7a3.351,3.351,0,0,1,.23-.58Z"
                fill="#263238" />
            <path id="Path_191" data-name="Path 191"
                d="M110.64,426.71a.74.74,0,0,1,0-.22c0-.16,0-.38,0-.64,0-.59-.1-1.41-.17-2.45-.13-2.17-.32-5.25-.56-9-.49-7.63-1.2-18.18-2.48-29.77-.66-5.8-1.42-11.31-2.21-16.3-.42-2.49-.81-4.86-1.24-7.07s-.82-4.26-1.22-6.13-.78-3.56-1.11-5-.65-2.75-.91-3.79-.45-1.81-.59-2.39a2.361,2.361,0,0,0-.14-.63c-.04-.17,0-.21,0-.21a.482.482,0,0,0,.07.2,4.085,4.085,0,0,1,.18.62l.66,2.37c.29,1,.63,2.3,1,3.78s.78,3.15,1.17,5,.86,3.91,1.27,6.13.84,4.58,1.27,7.07c.81,5,1.59,10.51,2.25,16.31,1.28,11.61,1.94,22.17,2.36,29.81.21,3.82.35,6.91.44,9.05l.09,2.46v.86Z"
                fill="#263238" />
            <path id="Path_192" data-name="Path 192"
                d="M113.74,349.43c-.24-2.63-2.9-4.61-5.54-4.64a8.74,8.74,0,0,0-6.72,3.65,21.12,21.12,0,0,0-3.23,7.18,48.72,48.72,0,0,0-2,19.1A28.88,28.88,0,0,0,104.21,392a3.25,3.25,0,0,0,2.79,1.2,3.3,3.3,0,0,0,1.44-.89,42.8,42.8,0,0,0,13.88-32.52,13.17,13.17,0,0,0-1.74-7c-1.35-2-4.49-4.18-6.79-3.37"
                fill="#07635d" />
            <path id="Path_193" data-name="Path 193"
                d="M94,328.37l-3.7,6.73c-.08.16-.2.34-.38.35s-.34-.17-.45-.33q-4.91-7.55-9.83-15.09l2.27-1.29Z"
                fill="#07635d" />
            <g id="Group_74" data-name="Group 74" opacity="0.2">
                <path id="Path_194" data-name="Path 194"
                    d="M94,328.37l-3.7,6.73c-.08.16-.2.34-.38.35s-.34-.17-.45-.33q-4.91-7.55-9.83-15.09l2.27-1.29Z" />
            </g>
            <path id="Path_195" data-name="Path 195"
                d="M114,340.51l-33.55-19.8a1.54,1.54,0,0,1-.81-.82,1.516,1.516,0,0,1,.59-1.35,23.12,23.12,0,0,1,17.93-7,20.49,20.49,0,0,1,16.21,10.08c3.24,5.78,3.34,13.44-.37,18.93"
                fill="#07635d" />
            <path id="Path_196" data-name="Path 196"
                d="M85.26,314.39a2.191,2.191,0,0,1,.44-.05,12.307,12.307,0,0,1,1.27-.06,24.453,24.453,0,0,1,4.65.37,27.18,27.18,0,0,1,21.71,19.64,25.8,25.8,0,0,1,.84,4.6,5.387,5.387,0,0,1,0,1,1.77,1.77,0,0,1-.26.73,6.07,6.07,0,0,0,.05-1.69A28,28,0,0,0,87,314.43a16.258,16.258,0,0,1-1.74-.04Z"
                fill="#263238" />
            <path id="Path_197" data-name="Path 197"
                d="M109.43,326.84a8.15,8.15,0,0,1-1.7.77c-1.06.43-2.56,1-4.23,1.5s-3.2.95-4.32,1.22a8.41,8.41,0,0,1-1.83.35,8.791,8.791,0,0,1,1.76-.62l4.27-1.34,4.26-1.37a10,10,0,0,1,1.79-.51Z"
                fill="#263238" />
            <path id="Path_198" data-name="Path 198"
                d="M104.15,312.65a14.33,14.33,0,0,1,.39,3.75,13.92,13.92,0,0,1-.2,3.75,22.911,22.911,0,0,1-.2-3.74,22.368,22.368,0,0,1,.01-3.76Z"
                fill="#263238" />
            <path id="Path_199" data-name="Path 199"
                d="M80.13,320.34a13.673,13.673,0,0,1,2.44-.86c1.52-.47,3.64-1.07,6-1.64s4.53-1,6.1-1.28a15.174,15.174,0,0,1,2.56-.35,17.427,17.427,0,0,1-2.51.63c-1.55.35-3.69.83-6.06,1.39s-4.48,1.12-6,1.52A19.378,19.378,0,0,1,80.13,320.34Z"
                fill="#263238" />
            <path id="Path_200" data-name="Path 200"
                d="M99.82,343.73c-2.89-2.19-5.94-2.62-9.55-2.48A29.21,29.21,0,0,0,79.81,344c-5.66,2.48-11,6.13-14.36,11.3s-4.55,12-2,17.64a2.52,2.52,0,0,0,1.14,1.39,2.73,2.73,0,0,0,1.9-.14c6.43-2.1,12.91-4.22,18.83-7.51s11.3-7.85,14.47-13.83a12,12,0,0,0,1.53-4.59,5.72,5.72,0,0,0-1.48-4.48"
                fill="#07635d" />
            <path id="Path_201" data-name="Path 201"
                d="M99.88,343.05l-.47.18-1.34.47-1,.32-1.14.45c-.81.33-1.76.66-2.75,1.14l-1.58.72c-.55.25-1.1.56-1.67.86-1.17.57-2.35,1.3-3.61,2a63.161,63.161,0,0,0-7.61,5.65,62.232,62.232,0,0,0-6.58,6.84c-.9,1.15-1.77,2.23-2.49,3.31-.36.54-.74,1-1.06,1.55l-.92,1.47c-.6.93-1.05,1.82-1.48,2.59-.21.39-.41.74-.58,1.07s-.32.65-.45.93l-.63,1.28a2.1,2.1,0,0,1-.25.43,3.361,3.361,0,0,1,.17-.46l.57-1.32.41-.94.56-1.09c.42-.78.85-1.69,1.44-2.63l.9-1.5c.31-.51.68-1,1-1.57.71-1.1,1.58-2.19,2.47-3.35a59.422,59.422,0,0,1,6.6-6.91,60.06,60.06,0,0,1,7.69-5.66,40.847,40.847,0,0,1,3.64-2c.59-.29,1.14-.6,1.69-.84l1.6-.7c1-.47,2-.78,2.79-1.09.42-.15.8-.3,1.16-.42l1-.29,1.37-.39A1.64,1.64,0,0,1,99.88,343.05Z"
                fill="#263238" />
            <path id="Path_202" data-name="Path 202"
                d="M77.34,355.25a67.26,67.26,0,0,1-7,2.26,65.6,65.6,0,0,1-7.13,1.88,66.532,66.532,0,0,1,7-2.26,67.555,67.555,0,0,1,7.13-1.88Z"
                fill="#263238" />
            <path id="Path_203" data-name="Path 203"
                d="M77.05,370.74a10.75,10.75,0,0,1-.16-2.19v-5.28c0-2.06.17-3.93.28-5.28a11.55,11.55,0,0,1,.27-2.17,11.869,11.869,0,0,1,0,2.19c0,1.48-.1,3.28-.16,5.27s-.1,3.79-.13,5.27A14.07,14.07,0,0,1,77.05,370.74Z"
                fill="#263238" />
            <path id="Path_204" data-name="Path 204"
                d="M90.31,364c-.11,0-.46-3.79-.78-8.48a82.064,82.064,0,0,1-.39-8.52,81.652,81.652,0,0,1,.79,8.48A83.582,83.582,0,0,1,90.31,364Z"
                fill="#263238" />
            <path id="Path_205" data-name="Path 205"
                d="M73.8,346.62a12.9,12.9,0,0,1,2.25-.07c1.39,0,3.3.05,5.42.12s4,.16,5.41.24a11.633,11.633,0,0,1,2.24.22,14.281,14.281,0,0,1-2.25.07c-1.39,0-3.3-.05-5.42-.12s-4-.16-5.41-.24a12.564,12.564,0,0,1-2.24-.22Z"
                fill="#263238" />
            <path id="Path_206" data-name="Path 206"
                d="M105.65,392.83a1.571,1.571,0,0,1-.05-.45,10.751,10.751,0,0,0-.06-1.29c-.05-1.12-.06-2.74,0-4.75s.17-4.39.41-7,.64-5.54,1.18-8.55,1.23-5.86,1.91-8.43,1.42-4.85,2.1-6.75,1.25-3.41,1.69-4.45l.51-1.19a1.869,1.869,0,0,1,.2-.4,1.63,1.63,0,0,1-.12.43c-.12.32-.26.72-.44,1.22-.4,1.05-.94,2.58-1.57,4.48s-1.32,4.19-2,6.75-1.32,5.4-1.87,8.41-.93,5.89-1.21,8.52-.42,5-.5,7-.11,3.62-.1,4.74v1.29a2.709,2.709,0,0,1-.08.42Z"
                fill="#263238" />
            <path id="Path_207" data-name="Path 207"
                d="M107.42,370.86a9.29,9.29,0,0,1-1.34,1.47c-.87.87-2.1,2-3.51,3.26s-2.72,2.31-3.69,3.05a9.591,9.591,0,0,1-1.63,1.14,10.171,10.171,0,0,1,1.45-1.36l3.61-3.13,3.57-3.16a11,11,0,0,1,1.54-1.27Z"
                fill="#263238" />
            <path id="Path_208" data-name="Path 208"
                d="M118,379.42a16.231,16.231,0,0,1-1.42-2l-3.32-4.83c-1.28-1.82-2.44-3.47-3.38-4.79a16.8,16.8,0,0,1-1.36-2,12.749,12.749,0,0,1,1.59,1.86c.93,1.18,2.17,2.84,3.48,4.73s2.44,3.63,3.23,4.91a13,13,0,0,1,1.18,2.12Z"
                fill="#263238" />
            <path id="Path_209" data-name="Path 209"
                d="M112.47,352.52c.06.09-3.47,2.47-7.88,5.3s-8,5.06-8.09,5,3.47-2.47,7.88-5.31S112.41,352.42,112.47,352.52Z"
                fill="#263238" />
            <path id="Path_210" data-name="Path 210"
                d="M122.42,363.25a65.376,65.376,0,0,1-5.34-4.93,63.714,63.714,0,0,1-5-5.22,67.714,67.714,0,0,1,5.33,4.94,66.009,66.009,0,0,1,5.01,5.21Z"
                fill="#263238" />
            <path id="Path_211" data-name="Path 211"
                d="M124.92,363l3-.25a15.11,15.11,0,0,0,6.11-1.87,23.775,23.775,0,0,1,2.85-1.44c3.75-1.5,7.92-1.23,12-1.43a49.619,49.619,0,0,0,19-4.86,1.85,1.85,0,0,0,.83-.76c.62-1.13-.53-2.14-1.53-2.75-5.1-3.14-10.29-6.33-16.08-7.89s-12.35-1.29-17.29,2.1c-5.79,4-7.9,12.18-8.88,19.15"
                fill="#07635d" />
            <path id="Path_212" data-name="Path 212"
                d="M168.77,352.06a2.192,2.192,0,0,1-.52-.24l-1.43-.75c-1.25-.65-3-1.62-5.3-2.7a49.369,49.369,0,0,0-8.21-3.17,27.24,27.24,0,0,0-10.63-.86,18.23,18.23,0,0,0-9.7,4.16,21.76,21.76,0,0,0-5,7.1,58.236,58.236,0,0,0-2.19,5.52c-.23.63-.41,1.14-.54,1.52a4.774,4.774,0,0,1-.21.53,2.25,2.25,0,0,1,.13-.55c.12-.39.27-.91.47-1.55a49.54,49.54,0,0,1,2.09-5.59,21.3,21.3,0,0,1,5.06-7.25,18.42,18.42,0,0,1,9.88-4.29,27,27,0,0,1,10.79.91,47.47,47.47,0,0,1,8.23,3.26c2.26,1.12,4,2.13,5.25,2.82l1.4.82a3.74,3.74,0,0,1,.43.31Z"
                fill="#263238" />
            <path id="Path_213" data-name="Path 213"
                d="M161.5,356c-.07.09-4-2.47-8.85-5.72s-8.68-6-8.62-6.06,4,2.47,8.85,5.73S161.56,355.88,161.5,356Z"
                fill="#263238" />
            <path id="Path_214" data-name="Path 214"
                d="M157.27,344a9.441,9.441,0,0,1-2.88.52,9.56,9.56,0,0,1-2.94,0,19.736,19.736,0,0,1,2.9-.29A20.38,20.38,0,0,1,157.27,344Z"
                fill="#263238" />
            <path id="Path_215" data-name="Path 215"
                d="M139.93,341.73a7.44,7.44,0,0,1-1.29,2,8.45,8.45,0,0,1-1.65,1.87,7.649,7.649,0,0,1,1.3-2,8.56,8.56,0,0,1,1.64-1.87Z"
                fill="#263238" />
            <path id="Path_216" data-name="Path 216"
                d="M143.48,358.3a10.488,10.488,0,0,1-1.9-1c-1.15-.69-2.69-1.71-4.34-2.91s-3.11-2.34-4.16-3.17a10.323,10.323,0,0,1-1.64-1.41,12,12,0,0,1,1.81,1.19l4.22,3.06c1.65,1.2,3.16,2.25,4.26,3a12.679,12.679,0,0,1,1.75,1.24Z"
                fill="#263238" />
            <path id="Path_217" data-name="Path 217"
                d="M129.38,375.9c-2.89-.76-6.33,2.05-6.93,5s.5,5.92,1.79,8.61a43.91,43.91,0,0,0,11.94,15.63,29.5,29.5,0,0,0,18.26,6.72c-1.22-5.67.33-11.59-.35-17.35a22.58,22.58,0,0,0-20-19.8c-1.84-.2-4-.49-4.71,1.21"
                fill="#07635d" />
            <path id="Path_218" data-name="Path 218"
                d="M154.44,411.84a1.579,1.579,0,0,1-.41-.19,7.913,7.913,0,0,1-1.08-.72,11.45,11.45,0,0,1-2.85-3.82c-.46-.89-1-1.86-1.48-2.94s-1-2.22-1.55-3.43a33.936,33.936,0,0,0-1.91-3.67,28.769,28.769,0,0,0-2.63-3.58c-2-2.32-4.1-4.33-5.94-6.25a40.848,40.848,0,0,1-4.52-5.43,19.67,19.67,0,0,1-2.22-4.23,12.325,12.325,0,0,1-.38-1.23,1.639,1.639,0,0,1-.09-.45s.2.59.62,1.63a21.709,21.709,0,0,0,2.3,4.12,42.508,42.508,0,0,0,4.56,5.33c1.85,1.9,4,3.91,6,6.25a29.507,29.507,0,0,1,2.66,3.63,33.8,33.8,0,0,1,1.91,3.73c.53,1.21,1,2.36,1.52,3.44s1,2.05,1.42,3a11.69,11.69,0,0,0,2.7,3.83C153.9,411.53,154.47,411.8,154.44,411.84Z"
                fill="#263238" />
            <path id="Path_219" data-name="Path 219"
                d="M139.51,407.13a9.089,9.089,0,0,1,.26-1.94c.23-1.19.6-2.83,1.1-4.6a43.5,43.5,0,0,1,1.47-4.5,8.59,8.59,0,0,1,.79-1.8,11.81,11.81,0,0,1-.52,1.89c-.36,1.15-.85,2.74-1.35,4.51s-.91,3.39-1.21,4.56a9.64,9.64,0,0,1-.54,1.88Z"
                fill="#263238" />
            <path id="Path_220" data-name="Path 220"
                d="M153.9,393.21a11.109,11.109,0,0,1-2-.47c-1.24-.32-3-.77-4.87-1.2s-3.66-.76-4.92-1a12.693,12.693,0,0,1-2-.45,9.116,9.116,0,0,1,2.08.17c1.28.16,3,.46,5,.89a48.332,48.332,0,0,1,4.86,1.32A10.471,10.471,0,0,1,153.9,393.21Z"
                fill="#263238" />
            <path id="Path_221" data-name="Path 221"
                d="M128.79,397.25a12.309,12.309,0,0,1,.31-2.25c.26-1.37.66-3.27,1.2-5.34s1.12-3.92,1.57-5.25a11.777,11.777,0,0,1,.83-2.12,14.93,14.93,0,0,1-.56,2.2c-.38,1.35-.91,3.21-1.45,5.27s-1,3.94-1.31,5.3a12.51,12.51,0,0,1-.59,2.19Z"
                fill="#263238" />
            <path id="Path_222" data-name="Path 222"
                d="M147.27,381.08c0,.11-3.62-.18-8.05-.65s-8-.94-8-1.05a77.833,77.833,0,0,1,8,.65C143.7,380.5,147.28,381,147.27,381.08Z"
                fill="#263238" />
            <path id="Path_223" data-name="Path 223"
                d="M144.63,424.8c0,.11-12.67.2-28.31.2s-28.3-.09-28.3-.2,12.67-.2,28.3-.2S144.63,424.69,144.63,424.8Z"
                fill="#455a64" />
            <path id="Path_224" data-name="Path 224"
                d="M135.81,441.11c0,.11-8.54.2-19.07.2s-19.07-.09-19.07-.2,8.54-.2,19.07-.2S135.81,441,135.81,441.11Z"
                fill="#455a64" />
            <path id="Path_225" data-name="Path 225"
                d="M135.48,443.44c0,.12-8.39.21-18.74.21S98,443.56,98,443.44s8.39-.2,18.74-.2S135.48,443.33,135.48,443.44Z"
                fill="#455a64" />
            <path id="Path_226" data-name="Path 226"
                d="M136.14,439.19c0,.11-8.83.2-19.72.2s-19.73-.09-19.73-.2,8.83-.2,19.73-.2S136.14,439.08,136.14,439.19Z"
                fill="#455a64" />
        </g>
        <g id="freepik--Screens--inject-5">
            <path id="Path_227" data-name="Path 227"
                d="M149.17,120.31h-6.46a5,5,0,0,0-2,.21,3.06,3.06,0,0,0-1.53,1.36,3.4,3.4,0,0,0-.37,1,7.118,7.118,0,0,0,0,1.14v1.18a5.7,5.7,0,0,1-.08,1.23,3.27,3.27,0,0,1-1.44,2.08A3.1,3.1,0,0,1,136,129H111.23a3.27,3.27,0,0,1-.93-.09,3.09,3.09,0,0,1-1.61-1,3.34,3.34,0,0,1-.79-1.75,7.92,7.92,0,0,1,0-1v-1a5,5,0,0,0-.2-1.9,3.08,3.08,0,0,0-1.15-1.51,3,3,0,0,0-1.86-.51H89.76a9.723,9.723,0,0,0-10,7.63,11.716,11.716,0,0,0-.2,1.16c0,.33,0,.66,0,1v158.8a10.31,10.31,0,0,0,.4,3.13,9.84,9.84,0,0,0,3.84,5.28,10.23,10.23,0,0,0,6.32,1.73H155.1a9.84,9.84,0,0,0,5.6-2.17,10.21,10.21,0,0,0,2-2.23,9.71,9.71,0,0,0,1.24-2.72,10.519,10.519,0,0,0,.37-3v-14.7c0-31.25,0-59.38.05-83s0-42.75.06-56v-4.68a10.17,10.17,0,0,0-.72-4,9.939,9.939,0,0,0-1.87-2.95,9.63,9.63,0,0,0-2.25-1.83,9.44,9.44,0,0,0-3.71-1.31,8.13,8.13,0,0,0-1-.09h-5.66Z"
                fill="#fafafa" />
            <path id="Path_228" data-name="Path 228"
                d="M154.6,120.42h.34a9.89,9.89,0,0,1,7,3.2,9.84,9.84,0,0,1,1.89,3,10.19,10.19,0,0,1,.74,4c0,1.47,0,3,0,4.68V289.16a10.72,10.72,0,0,1-.38,3A10.1,10.1,0,0,1,163,295a10.71,10.71,0,0,1-2.07,2.29,10,10,0,0,1-5.73,2.22c-2.08.06-4.14,0-6.23,0H90.38a10.5,10.5,0,0,1-6.38-1.8,10.22,10.22,0,0,1-4-5.43,11,11,0,0,1-.41-3.36V130.49a8.042,8.042,0,0,1,.06-1.2,11.816,11.816,0,0,1,.2-1.19,10.035,10.035,0,0,1,10.18-7.78H105a3.24,3.24,0,0,1,2,.55,3.28,3.28,0,0,1,1.21,1.59,5.49,5.49,0,0,1,.2,2v1a7.26,7.26,0,0,0,0,.94,3.18,3.18,0,0,0,.74,1.67,3,3,0,0,0,1.52.94,3.279,3.279,0,0,0,.89.08H136.2a3,3,0,0,0,1.21-.42,3.17,3.17,0,0,0,1.39-2,5.47,5.47,0,0,0,.08-1.21v-1.18a7.451,7.451,0,0,1,.05-1.16,3.44,3.44,0,0,1,.38-1.06,3.07,3.07,0,0,1,1.58-1.4,4.8,4.8,0,0,1,2-.21h-.03a4.78,4.78,0,0,0-1.94.21,3.1,3.1,0,0,0-1.53,1.36,3.38,3.38,0,0,0-.36,1,7,7,0,0,0-.05,1.14v1.18a5.681,5.681,0,0,1-.07,1.23,3.23,3.23,0,0,1-1.44,2.07,2.94,2.94,0,0,1-1.26.45H111.5a3.67,3.67,0,0,1-.93-.09,3.11,3.11,0,0,1-1.61-1,3.37,3.37,0,0,1-.78-1.74,7.919,7.919,0,0,1,0-1v-1a5.05,5.05,0,0,0-.2-1.9,3.1,3.1,0,0,0-1.15-1.5,2.92,2.92,0,0,0-1.85-.51H90.11a9.934,9.934,0,0,0-9.93,7.77c-.1.38-.13.77-.2,1.16a6.643,6.643,0,0,0,0,1.18V288.92a10.659,10.659,0,0,0,.4,3.28,9.9,9.9,0,0,0,3.82,5.28,10.22,10.22,0,0,0,6.31,1.73h64.78a9.74,9.74,0,0,0,5.57-2.16,10.44,10.44,0,0,0,2-2.23,9.81,9.81,0,0,0,1.23-2.72,10.189,10.189,0,0,0,.37-3V191.24c0-23.61,0-42.75.05-56v-4.68a10.08,10.08,0,0,0-.73-4,9.8,9.8,0,0,0-1.86-2.94,9.94,9.94,0,0,0-5.94-3.14,6.347,6.347,0,0,0-1-.09Z"
                fill="#263238" />
            <path id="Path_229" data-name="Path 229"
                d="M156.52,136.49s-1.64.09-3.66.11-3.66,0-3.66,0,1.63-.09,3.66-.11S156.52,136.45,156.52,136.49Z"
                fill="#263238" />
            <path id="Path_230" data-name="Path 230"
                d="M156.54,138.37s-1.64.09-3.67.1-3.66,0-3.66,0,1.64-.09,3.66-.11S156.54,138.32,156.54,138.37Z"
                fill="#263238" />
            <path id="Path_231" data-name="Path 231"
                d="M156.55,140.24s-1.64.09-3.66.11-3.66,0-3.66,0,1.64-.09,3.66-.11S156.55,140.2,156.55,140.24Z"
                fill="#263238" />
            <path id="Path_232" data-name="Path 232"
                d="M89.9,142.38h2.14v-1.79a.61.61,0,0,1,.53-.48h.74a.6.6,0,0,1,.52.6c0,.53,0,1.08,0,1.66l-.08-.07h2l-.08.07v-3.08a.63.63,0,0,0-.27-.47l-.87-.85-.83-.82-.4-.4c-.14-.13-.25-.27-.41-.3a.54.54,0,0,0-.45.08c-.12.1-.25.25-.37.36l-.71.72c-.44.46-.91.88-1.24,1.28a1.33,1.33,0,0,0-.1.74v2.53a1.11,1.11,0,0,1,0,.26,2.172,2.172,0,0,1,0-.24c0-.19,0-.42,0-.7v-2.23a.87.87,0,0,1,.11-.41c.37-.45.8-.85,1.25-1.32l.7-.72c.13-.12.23-.25.38-.38a.7.7,0,0,1,.58-.11,1.1,1.1,0,0,1,.47.34l.41.39.83.82.86.85a1.28,1.28,0,0,1,.22.24.65.65,0,0,1,.11.33v3.17h-2.3v-1.73a.48.48,0,0,0-.4-.48h-.71a.5.5,0,0,0-.43.39c0,.19,0,.43,0,.63v1.13H89.9Z"
                fill="#263238" />
            <path id="Path_233" data-name="Path 233"
                d="M139.64,208c0,.28-7.85.51-17.53.51s-17.52-.23-17.52-.51,7.84-.51,17.52-.51S139.64,207.74,139.64,208Z"
                fill="#263238" />
            <rect id="Rectangle_14" data-name="Rectangle 14" width="34.02" height="45.27"
                transform="matrix(0.006, -1, 1, 0.006, 99.445, 196.138)" fill="#07635d" />
            <path id="Path_234" data-name="Path 234"
                d="M99.44,196.14l15.93-21.06,9.72,13.29,6.68-7.04,12.94,15.06Z" fill="#07635d" />
            <path id="Path_235" data-name="Path 235"
                d="M129.33,172.57a3.56,3.56,0,1,1-1.025-2.53,3.56,3.56,0,0,1,1.025,2.53Z"
                fill="#07635d" />
            <g id="Group_75" data-name="Group 75" opacity="0.2">
                <path id="Path_236" data-name="Path 236"
                    d="M99.44,196.14l15.93-21.06,9.72,13.29,6.68-7.04,12.94,15.06Z" />
            </g>
            <g id="Group_76" data-name="Group 76" opacity="0.2">
                <path id="Path_237" data-name="Path 237"
                    d="M129.33,172.57a3.56,3.56,0,1,1-1.025-2.53,3.56,3.56,0,0,1,1.025,2.53Z" />
            </g>
            <path id="Path_238" data-name="Path 238"
                d="M153.28,220.54c0,.29-13.92.52-31.07.52s-31.08-.23-31.08-.52S105,220,122.21,220,153.28,220.26,153.28,220.54Z"
                fill="#263238" />
            <path id="Path_239" data-name="Path 239"
                d="M153.28,229.2c0,.29-13.92.52-31.07.52s-31.08-.23-31.08-.52,13.91-.51,31.08-.51S153.28,228.92,153.28,229.2Z"
                fill="#263238" />
            <path id="Path_240" data-name="Path 240"
                d="M153.28,237.87c0,.28-13.92.51-31.07.51s-31.08-.23-31.08-.51,13.91-.52,31.08-.52S153.28,237.58,153.28,237.87Z"
                fill="#263238" />
            <path id="Path_241" data-name="Path 241"
                d="M153.28,246.53c0,.28-13.92.51-31.07.51s-31.08-.23-31.08-.51S105,246,122.21,246,153.28,246.25,153.28,246.53Z"
                fill="#263238" />
            <path id="Path_242" data-name="Path 242"
                d="M153.28,255.19c0,.29-13.92.52-31.07.52s-31.08-.23-31.08-.52,13.91-.51,31.08-.51S153.28,254.91,153.28,255.19Z"
                fill="#263238" />
            <path id="Path_243" data-name="Path 243"
                d="M139.91,263.1c0,.14-2,.27-5.22.36s-7.69.15-12.62.15-9.38-.05-12.61-.15-5.22-.22-5.22-.36,2-.27,5.22-.36,7.69-.15,12.61-.15,9.39.05,12.62.15A32.37,32.37,0,0,1,139.91,263.1Z"
                fill="#263238" />
            <path id="Path_244" data-name="Path 244"
                d="M211.29,105.77h-7.18A5.31,5.31,0,0,0,202,106a3.37,3.37,0,0,0-1.71,1.52,3.49,3.49,0,0,0-.4,1.15,7.624,7.624,0,0,0-.06,1.27c0,.44,0,.88,0,1.33a7.121,7.121,0,0,1-.09,1.37,3.65,3.65,0,0,1-1.6,2.31,3.45,3.45,0,0,1-1.41.5H169.21a4.12,4.12,0,0,1-1-.1,3.49,3.49,0,0,1-1.79-1.11,3.69,3.69,0,0,1-.87-2,7.8,7.8,0,0,1,0-1.08v-1.07a5.77,5.77,0,0,0-.21-2.12,3.41,3.41,0,0,0-1.29-1.68,3.24,3.24,0,0,0-2.06-.57H145.27a10.94,10.94,0,0,0-8.84,3.92,11.15,11.15,0,0,0-2.28,4.59c-.11.42-.14.86-.22,1.29s0,.74-.05,1.11v177.2a11.63,11.63,0,0,0,.44,3.48,11,11,0,0,0,4.27,5.89,11.37,11.37,0,0,0,7,1.94h72.2a10.9,10.9,0,0,0,6.22-2.41,11.83,11.83,0,0,0,2.25-2.49,11,11,0,0,0,1.37-3,11.859,11.859,0,0,0,.42-3.3v-16.6c0-34.85,0-66.23.06-92.59s0-47.68.06-62.42v-5.22a11.36,11.36,0,0,0-.81-4.46,11,11,0,0,0-2.08-3.28,10.639,10.639,0,0,0-2.5-2.05,10.37,10.37,0,0,0-4.12-1.45,8.9,8.9,0,0,0-1.12-.11h-1.88Z"
                fill="#fafafa" />
            <path id="Path_245" data-name="Path 245"
                d="M217.28,105.66h.38a7.769,7.769,0,0,1,1.12.08,11.089,11.089,0,0,1,8.78,6.78,11.39,11.39,0,0,1,.83,4.5c0,1.63,0,3.37,0,5.21v171.6a11.669,11.669,0,0,1-.42,3.37,11.28,11.28,0,0,1-1.42,3.12,11.92,11.92,0,0,1-2.3,2.56,11.25,11.25,0,0,1-6.39,2.48c-2.32.07-4.62,0-7,0H145.69a11.77,11.77,0,0,1-7.2-2,11.38,11.38,0,0,1-4.39-6.06,12.19,12.19,0,0,1-.46-3.74V116.86a10.5,10.5,0,0,1,.29-2.66,11.21,11.21,0,0,1,2.33-4.69,11.5,11.5,0,0,1,4.1-3.07,11.68,11.68,0,0,1,4.92-.93h16.56a3.48,3.48,0,0,1,2.17.61,3.68,3.68,0,0,1,1.36,1.78,6,6,0,0,1,.22,2.18v1.08a7.259,7.259,0,0,0,0,1,3.46,3.46,0,0,0,.82,1.86,3.35,3.35,0,0,0,1.69,1,3.73,3.73,0,0,0,1,.09h27.53a3.25,3.25,0,0,0,1.36-.47,3.55,3.55,0,0,0,1.55-2.23,6.089,6.089,0,0,0,.08-1.35v-1.32a8,8,0,0,1,.05-1.29,4,4,0,0,1,.42-1.18,3.55,3.55,0,0,1,1.77-1.57,5.56,5.56,0,0,1,2.2-.23h.13a5.48,5.48,0,0,0-2.16.24,3.32,3.32,0,0,0-1.71,1.52,3.51,3.51,0,0,0-.41,1.15,8.882,8.882,0,0,0,0,1.27v1.32a6.339,6.339,0,0,1-.08,1.37,3.62,3.62,0,0,1-1.61,2.32,3.41,3.41,0,0,1-1.4.5H169.3a4.09,4.09,0,0,1-1-.11,3.43,3.43,0,0,1-1.79-1.1,3.69,3.69,0,0,1-.87-1.95,7.92,7.92,0,0,1,0-1.08v-.82a5.79,5.79,0,0,0-.22-2.12A3.48,3.48,0,0,0,164,106.3a3.37,3.37,0,0,0-2.06-.57H145.35a11,11,0,0,0-8.85,3.93,11.19,11.19,0,0,0-2.27,4.59c-.11.42-.14.86-.22,1.29s0,.87-.06,1.32V293.62a11.8,11.8,0,0,0,.45,3.65,11,11,0,0,0,4.27,5.89,11.33,11.33,0,0,0,7,1.93h72.27a10.93,10.93,0,0,0,6.22-2.41,11.52,11.52,0,0,0,2.24-2.49,10.7,10.7,0,0,0,1.38-3,11.42,11.42,0,0,0,.41-3.29V277.26c0-34.84,0-66.22.05-92.58s0-47.68.07-62.43V117a11.54,11.54,0,0,0-.8-4.46,11.09,11.09,0,0,0-2.08-3.29,10.84,10.84,0,0,0-2.5-2,11,11,0,0,0-5.24-1.56Z"
                fill="#263238" />
            <path id="Path_246" data-name="Path 246"
                d="M219.42,123.58s-1.83.11-4.08.12-4.09,0-4.09,0,1.83-.1,4.08-.12S219.42,123.54,219.42,123.58Z"
                fill="#263238" />
            <path id="Path_247" data-name="Path 247"
                d="M219.44,125.67s-1.83.11-4.09.12-4.08,0-4.08-.05,1.82-.1,4.08-.12S219.44,125.63,219.44,125.67Z"
                fill="#263238" />
            <path id="Path_248" data-name="Path 248"
                d="M219.45,127.76s-1.82.11-4.08.12-4.09,0-4.09,0,1.83-.1,4.09-.12S219.45,127.72,219.45,127.76Z"
                fill="#263238" />
            <path id="Path_249" data-name="Path 249"
                d="M145.12,130.15h2.39v-1.99a.68.68,0,0,1,.59-.54,7.649,7.649,0,0,1,.83,0,.67.67,0,0,1,.57.67v1.84l-.08-.08h2.2l-.08.09V126.7a.69.69,0,0,0-.31-.52l-1-1-.93-.92-.45-.44a1.1,1.1,0,0,0-.46-.34.56.56,0,0,0-.5.1c-.13.11-.28.27-.41.4l-.79.8c-.5.51-1,1-1.39,1.43a1.52,1.52,0,0,0-.11.82v-.42a.93.93,0,0,1,.12-.46c.41-.5.9-.94,1.4-1.47l.78-.81c.14-.14.26-.27.43-.42a.74.74,0,0,1,.63-.12,1.15,1.15,0,0,1,.53.37l.45.45c.31.29.62.6.93.91l1,1a1.51,1.51,0,0,1,.24.26.63.63,0,0,1,.12.37v3.53h-2.37v-1.93a.52.52,0,0,0-.44-.53h-.8a.55.55,0,0,0-.48.43c0,.22,0,.48,0,.7v1.32h-2.44Z"
                fill="#263238" />
            <path id="Path_250" data-name="Path 250"
                d="M189.6,141.59a7.38,7.38,0,1,1-7.37-7.37,7.38,7.38,0,0,1,7.37,7.37Z"
                fill="#07635d" />
            <path id="Path_251" data-name="Path 251"
                d="M184.76,144.57H179.7V144a2.53,2.53,0,0,1,2.53-2.53h0a2.53,2.53,0,0,1,2.53,2.53Z"
                fill="#fff" />
            <path id="Path_252" data-name="Path 252"
                d="M183.71,140.11a1.48,1.48,0,1,1-.43-1.053,1.49,1.49,0,0,1,.43,1.053Z"
                fill="#fff" />
            <path id="Path_253" data-name="Path 253"
                d="M200.59,161.09c0,.31-8.75.57-19.54.57s-19.55-.26-19.55-.57,8.75-.58,19.55-.58S200.59,160.77,200.59,161.09Z"
                fill="#263238" />
            <rect id="Rectangle_15" data-name="Rectangle 15" width="25.36" height="33.75"
                transform="matrix(0.006, -1, 1, 0.006, 141.039, 205.869)" fill="#07635d" />
            <path id="Path_254" data-name="Path 254"
                d="M141.03,205.87l11.88-15.7,7.24,9.9,4.98-5.24,9.65,11.23Z" fill="#07635d" />
            <path id="Path_255" data-name="Path 255"
                d="M163.32,188.3a2.66,2.66,0,1,1-2.64-2.67,2.66,2.66,0,0,1,2.64,2.67Z"
                fill="#07635d" />
            <g id="Group_77" data-name="Group 77" opacity="0.2">
                <path id="Path_256" data-name="Path 256"
                    d="M141.03,205.87l11.88-15.7,7.24,9.9,4.98-5.24,9.65,11.23Z" />
            </g>
            <g id="Group_78" data-name="Group 78" opacity="0.2">
                <path id="Path_257" data-name="Path 257"
                    d="M163.32,188.3a2.66,2.66,0,1,1-2.64-2.67,2.66,2.66,0,0,1,2.64,2.67Z" />
            </g>
            <rect id="Rectangle_16" data-name="Rectangle 16" width="58.63" height="78.01"
                transform="matrix(0.006, -1, 1, 0.006, 140.728, 272.335)" fill="#07635d" />
            <path id="Path_258" data-name="Path 258"
                d="M140.73,272.33l27.45-36.3,16.75,22.9,11.51-12.12,22.3,25.95Z" fill="#07635d" />
            <path id="Path_259" data-name="Path 259"
                d="M192.24,231.7a6.13,6.13,0,1,1-1.771-4.35,6.14,6.14,0,0,1,1.771,4.35Z"
                fill="#07635d" />
            <g id="Group_79" data-name="Group 79" opacity="0.2">
                <path id="Path_260" data-name="Path 260"
                    d="M140.73,272.33l27.45-36.3,16.75,22.9,11.51-12.12,22.3,25.95Z" />
            </g>
            <g id="Group_80" data-name="Group 80" opacity="0.2">
                <path id="Path_261" data-name="Path 261"
                    d="M192.24,231.7a6.13,6.13,0,1,1-1.771-4.35,6.14,6.14,0,0,1,1.771,4.35Z" />
            </g>
            <rect id="Rectangle_17" data-name="Rectangle 17" width="25.36" height="33.75"
                transform="matrix(0.006, -1, 1, 0.006, 185.588, 205.87)" fill="#07635d" />
            <path id="Path_262" data-name="Path 262"
                d="M185.58,205.87l11.88-15.7,7.24,9.9,4.99-5.24,9.64,11.23Z" fill="#07635d" />
            <circle id="Ellipse_5" data-name="Ellipse 5" cx="2.66" cy="2.66" r="2.66"
                transform="translate(202.55 185.62)" fill="#07635d" />
            <g id="Group_81" data-name="Group 81" opacity="0.2">
                <path id="Path_263" data-name="Path 263"
                    d="M185.58,205.87l11.88-15.7,7.24,9.9,4.99-5.24,9.64,11.23Z" />
            </g>
            <g id="Group_82" data-name="Group 82" opacity="0.2">
                <circle id="Ellipse_6" data-name="Ellipse 6" cx="2.66" cy="2.66" r="2.66"
                    transform="translate(202.55 185.62)" />
            </g>
            <path id="Path_264" data-name="Path 264"
                d="M420.84,115.65h-6.43a5.15,5.15,0,0,0-1.94.21,3.16,3.16,0,0,0-1.89,2.4,6.138,6.138,0,0,0-.05,1.14v1.19a5.083,5.083,0,0,1-.08,1.22A3.29,3.29,0,0,1,409,123.9a3.11,3.11,0,0,1-1.26.44H383.05a3.37,3.37,0,0,1-.94-.09,3.11,3.11,0,0,1-1.6-1,3.29,3.29,0,0,1-.78-1.75,7.992,7.992,0,0,1,0-1v-1a5,5,0,0,0-.19-1.9,3.08,3.08,0,0,0-1.15-1.51,3,3,0,0,0-1.85-.51H361.65a9.84,9.84,0,0,0-7.93,3.52,10,10,0,0,0-2,4.12,11.016,11.016,0,0,0-.19,1.15,6.774,6.774,0,0,1-.05,1V284.28a10.25,10.25,0,0,0,.4,3.12,9.85,9.85,0,0,0,3.82,5.28,10.2,10.2,0,0,0,6.3,1.74h64.79a9.77,9.77,0,0,0,5.57-2.16,10.18,10.18,0,0,0,2-2.24,9.71,9.71,0,0,0,1.24-2.72,10.119,10.119,0,0,0,.37-2.95V186.49c0-23.62,0-42.76.06-56v-4.67a10.37,10.37,0,0,0-.73-4,9.91,9.91,0,0,0-4.1-4.78,9.52,9.52,0,0,0-3.7-1.31c-.44-.08-.78-.06-1-.09h-5.65Z"
                fill="#fafafa" />
            <rect id="Rectangle_18" data-name="Rectangle 18" width="55.84" height="11.41"
                transform="translate(365.34 182.94)" fill="#ebebeb" />
            <path id="Path_265" data-name="Path 265"
                d="M426.34,115.56h.34a7.717,7.717,0,0,1,1,.08,10,10,0,0,1,6,3.12,10.24,10.24,0,0,1,1.89,3,10.369,10.369,0,0,1,.74,4V284.31a10.37,10.37,0,0,1-.38,3,9.64,9.64,0,0,1-1.27,2.79,10.481,10.481,0,0,1-2.06,2.3,10.08,10.08,0,0,1-5.73,2.22c-2.08.06-4.15,0-6.24,0H362.15a10.54,10.54,0,0,1-6.46-1.78,10.16,10.16,0,0,1-3.93-5.44,10.889,10.889,0,0,1-.42-3.35V124.43a4.859,4.859,0,0,1,.2-1.19,10,10,0,0,1,10.18-7.78h14.85a3.21,3.21,0,0,1,1.95.55,3.28,3.28,0,0,1,1.21,1.59,5.07,5.07,0,0,1,.2,2v1a7.264,7.264,0,0,0,0,.94,3.05,3.05,0,0,0,.75,1.66,2.84,2.84,0,0,0,1.51.94,3,3,0,0,0,.9.09h24.69a2.84,2.84,0,0,0,1.21-.43,3.09,3.09,0,0,0,1.39-2,4.82,4.82,0,0,0,.08-1.2v-1.19a7.391,7.391,0,0,1,.06-1.15,3.321,3.321,0,0,1,.37-1.07,3.18,3.18,0,0,1,1.59-1.4,5.15,5.15,0,0,1,2-.21h.12a4.76,4.76,0,0,0-1.94.21,3,3,0,0,0-1.53,1.36,3.161,3.161,0,0,0-.36,1,6.142,6.142,0,0,0,0,1.14v1.19a5.7,5.7,0,0,1-.08,1.23,3.25,3.25,0,0,1-1.43,2.07,3,3,0,0,1-1.27.45H383.24a4.28,4.28,0,0,1-.94-.09,3.26,3.26,0,0,1-2.38-2.74,6.346,6.346,0,0,1,0-1v-1a5.24,5.24,0,0,0-.19-1.9,3,3,0,0,0-3-2H361.84a10.28,10.28,0,0,0-4.33.83,9.78,9.78,0,0,0-5.64,6.81c-.1.38-.13.77-.2,1.16a6.621,6.621,0,0,0-.05,1.18V283.91a10.592,10.592,0,0,0,.4,3.27,9.88,9.88,0,0,0,3.83,5.28,10.2,10.2,0,0,0,6.3,1.74h64.78a9.77,9.77,0,0,0,5.58-2.16,10.66,10.66,0,0,0,2-2.23,10,10,0,0,0,1.24-2.72,10.918,10.918,0,0,0,.37-3V269.42c0-31.24,0-59.38.05-83s0-42.76.05-56v-4.68a10.25,10.25,0,0,0-.72-4,9.889,9.889,0,0,0-1.87-2.94,9.26,9.26,0,0,0-2.24-1.84,9.49,9.49,0,0,0-3.69-1.3,6.539,6.539,0,0,0-1-.09Z"
                fill="#263238" />
            <path id="Path_266" data-name="Path 266"
                d="M428.25,131.63s-1.64.09-3.66.11-3.66,0-3.66-.05,1.64-.09,3.66-.11S428.25,131.59,428.25,131.63Z"
                fill="#263238" />
            <path id="Path_267" data-name="Path 267"
                d="M428.27,133.5c0,.05-1.64.09-3.66.11s-3.66,0-3.67-.05,1.64-.09,3.67-.1S428.27,133.46,428.27,133.5Z"
                fill="#263238" />
            <path id="Path_268" data-name="Path 268"
                d="M428.28,135.38s-1.63.09-3.66.11-3.66,0-3.66-.05,1.64-.09,3.66-.11S428.28,135.34,428.28,135.38Z"
                fill="#263238" />
            <path id="Path_269" data-name="Path 269"
                d="M361.64,137.52h2.14v-1.79a.6.6,0,0,1,.52-.48h.75a.6.6,0,0,1,.51.6q0,.795,0,1.65l-.07-.07h2l-.08.08v-3.08a.62.62,0,0,0-.28-.47l-.86-.85-.83-.82-.41-.4c-.14-.13-.24-.27-.41-.3a.52.52,0,0,0-.45.08c-.12.1-.25.25-.37.36l-.7.72c-.45.46-.91.88-1.25,1.28a1.42,1.42,0,0,0-.1.74v2.79a1.1,1.1,0,0,1,0-.24c0-.19,0-.42,0-.71v-2.22a.74.74,0,0,1,.11-.41c.36-.45.8-.85,1.25-1.32.22-.24.46-.48.7-.72a4.547,4.547,0,0,1,.38-.38.68.68,0,0,1,.57-.11,1,1,0,0,1,.47.34l.41.39.83.82.87.85a1.741,1.741,0,0,1,.22.24.64.64,0,0,1,.1.33q0,.315,0,.63v2.53h-2.15v-1.73a.48.48,0,0,0-.4-.48h-.72a.48.48,0,0,0-.42.38c0,.2,0,.43,0,.63v1.18h-2.18Z"
                fill="#263238" />
            <rect id="Rectangle_19" data-name="Rectangle 19" width="55.84" height="11.41"
                transform="translate(365.46 199.95)" fill="#ebebeb" />
            <rect id="Rectangle_20" data-name="Rectangle 20" width="55.84" height="11.41"
                transform="translate(365.46 216.5)" fill="#ebebeb" />
            <path id="Path_270" data-name="Path 270"
                d="M407.88,250.58h-28a5.71,5.71,0,0,1-5.7-5.71h0a5.7,5.7,0,0,1,5.7-5.7h28a5.7,5.7,0,0,1,5.7,5.7h0A5.71,5.71,0,0,1,407.88,250.58Z"
                fill="#07635d" />
            <path id="Path_271" data-name="Path 271"
                d="M411.25,171.15c0,.28-7.84.51-17.52.51s-17.52-.23-17.52-.51,7.84-.51,17.52-.51S411.25,170.87,411.25,171.15Z"
                fill="#263238" />
            <path id="Path_272" data-name="Path 272"
                d="M375.07,103.85h-7.18a5.31,5.31,0,0,0-2.16.23,3.37,3.37,0,0,0-1.71,1.52,3.739,3.739,0,0,0-.4,1.15,6.758,6.758,0,0,0-.05,1.28v1.32a7.125,7.125,0,0,1-.09,1.37,3.65,3.65,0,0,1-1.6,2.31,3.45,3.45,0,0,1-1.41.5H332.95a4.12,4.12,0,0,1-1-.1,3.49,3.49,0,0,1-1.79-1.11,3.77,3.77,0,0,1-.87-2,9.763,9.763,0,0,1,0-1.08v-1.07a5.771,5.771,0,0,0-.21-2.12,3.45,3.45,0,0,0-1.28-1.68,3.33,3.33,0,0,0-2.07-.57H309.05a10.94,10.94,0,0,0-8.84,3.92,11.15,11.15,0,0,0-2.28,4.59c-.11.43-.14.86-.22,1.29a5.141,5.141,0,0,0,0,1.11v177.2a11.319,11.319,0,0,0,.45,3.48,10.94,10.94,0,0,0,4.26,5.89,11.37,11.37,0,0,0,7,1.94h72.2a10.9,10.9,0,0,0,6.22-2.41,11.57,11.57,0,0,0,2.25-2.49,11,11,0,0,0,1.37-3,11.162,11.162,0,0,0,.42-3.3V275.44c0-34.85,0-66.23.05-92.59s0-47.68.06-62.42v-5.22a11.36,11.36,0,0,0-.81-4.46,11.112,11.112,0,0,0-8.7-6.78,8.487,8.487,0,0,0-1.12-.1h-1.88Z"
                fill="#fafafa" />
            <path id="Path_273" data-name="Path 273"
                d="M381.06,104h.38a10.1,10.1,0,0,1,1.12.09,10.47,10.47,0,0,1,4.15,1.43,10.749,10.749,0,0,1,2.53,2,11.06,11.06,0,0,1,2.1,3.3,11.34,11.34,0,0,1,.83,4.49q0,2.46,0,5.22V292.12a11.7,11.7,0,0,1-.42,3.38,11.118,11.118,0,0,1-1.42,3.12,11.891,11.891,0,0,1-2.3,2.56,11.25,11.25,0,0,1-6.39,2.48c-2.32.06-4.62,0-6.95,0H309.47a11.65,11.65,0,0,1-7.2-2,11.32,11.32,0,0,1-4.39-6.05,12.211,12.211,0,0,1-.46-3.75V115.17a10.167,10.167,0,0,1,.06-1.35,11.194,11.194,0,0,1,.23-1.31,11.319,11.319,0,0,1,2.33-4.69,11.5,11.5,0,0,1,4.1-3.07,11.68,11.68,0,0,1,4.92-.93h16.56a3.53,3.53,0,0,1,2.18.61,3.72,3.72,0,0,1,1.35,1.78,5.8,5.8,0,0,1,.22,2.18v1.08a7.264,7.264,0,0,0,0,1.05,3.55,3.55,0,0,0,.82,1.85,3.28,3.28,0,0,0,1.69,1,3.37,3.37,0,0,0,1,.1H360.5a3.25,3.25,0,0,0,1.36-.47,3.55,3.55,0,0,0,1.55-2.23,6.808,6.808,0,0,0,.09-1.35V108.1a6.928,6.928,0,0,1,.06-1.29,3.82,3.82,0,0,1,.41-1.19,3.57,3.57,0,0,1,1.77-1.56,5.58,5.58,0,0,1,2.2-.23H368a5.5,5.5,0,0,0-2.16.24,3.32,3.32,0,0,0-1.71,1.52,3.28,3.28,0,0,0-.4,1.15,7.56,7.56,0,0,0-.06,1.27v1.32a6.341,6.341,0,0,1-.08,1.37,3.6,3.6,0,0,1-1.6,2.31,3.36,3.36,0,0,1-1.41.5H333a3.67,3.67,0,0,1-1-.1,3.5,3.5,0,0,1-1.79-1.1,3.69,3.69,0,0,1-.87-2,7.923,7.923,0,0,1,0-1.08v-1.08a5.79,5.79,0,0,0-.21-2.12,3.51,3.51,0,0,0-1.29-1.68,3.3,3.3,0,0,0-2.06-.57H309.13a11.36,11.36,0,0,0-4.83.92,11,11,0,0,0-6.29,7.6c-.11.42-.14.86-.22,1.29a8.231,8.231,0,0,0-.06,1.32V291.63a11.861,11.861,0,0,0,.45,3.66,11,11,0,0,0,4.27,5.89,11.35,11.35,0,0,0,7,1.93h72.21A10.91,10.91,0,0,0,387.9,301a11.782,11.782,0,0,0,2.25-2.48,11.09,11.09,0,0,0,1.37-3,11.81,11.81,0,0,0,.42-3.3V275.57c0-34.84,0-66.23.05-92.58s.05-47.69.07-62.43v-5.22a11.309,11.309,0,0,0-.8-4.45,11.092,11.092,0,0,0-2.08-3.29,10.839,10.839,0,0,0-2.5-2,10.64,10.64,0,0,0-4.12-1.46,8.49,8.49,0,0,0-1.12-.1Z"
                fill="#263238" />
            <path id="Path_274" data-name="Path 274"
                d="M383.2,121.89s-1.83.1-4.08.12S375,122,375,122s1.83-.1,4.09-.12S383.2,121.84,383.2,121.89Z"
                fill="#263238" />
            <path id="Path_275" data-name="Path 275"
                d="M383.22,124s-1.83.1-4.09.12-4.08,0-4.08,0,1.83-.1,4.08-.12S383.22,123.93,383.22,124Z"
                fill="#263238" />
            <path id="Path_276" data-name="Path 276"
                d="M383.23,126.07c0,.05-1.82.1-4.08.12s-4.08,0-4.08,0,1.82-.1,4.08-.12S383.23,126,383.23,126.07Z"
                fill="#263238" />
            <path id="Path_277" data-name="Path 277"
                d="M308.9,128.46h2.39l-.05.05v-1.99a.68.68,0,0,1,.59-.54h.83a.68.68,0,0,1,.57.68v1.84l-.08-.08h2.2l-.08.09V125a.69.69,0,0,0-.31-.52l-1-1-.93-.92-.45-.44c-.15-.15-.28-.31-.46-.34a.59.59,0,0,0-.5.09c-.13.12-.28.28-.41.41l-.79.79c-.5.52-1,1-1.39,1.44a1.51,1.51,0,0,0-.11.82v2.82a1.43,1.43,0,0,1,0,.29v-3.53a.9.9,0,0,1,.13-.47c.4-.49.89-.94,1.39-1.47l.78-.8a5.751,5.751,0,0,1,.43-.42.75.75,0,0,1,.64-.13,1.28,1.28,0,0,1,.52.38l.45.44.94.92,1,.94a2.21,2.21,0,0,1,.25.27.7.7,0,0,1,.11.37c0,.23,0,.47,0,.7v2.83h-2.37v-1.92a.53.53,0,0,0-.44-.54h-.8a.53.53,0,0,0-.47.43,5.45,5.45,0,0,0,0,.7v1.32H308.9Z"
                fill="#263238" />
            <circle id="Ellipse_7" data-name="Ellipse 7" cx="18.48" cy="18.48" r="18.48"
                transform="translate(324.993 185.12) rotate(-81.2)" fill="#07635d" />
            <path id="Path_278" data-name="Path 278"
                d="M352.44,177.15H339.76v-1.56a6.34,6.34,0,0,1,6.34-6.34h0a6.34,6.34,0,0,1,6.34,6.34Z"
                fill="#fff" />
            <circle id="Ellipse_8" data-name="Ellipse 8" cx="3.73" cy="3.73" r="3.73"
                transform="translate(342.37 162.24)" fill="#fff" />
            <rect id="Rectangle_21" data-name="Rectangle 21" width="62.28" height="12.72"
                transform="translate(313.17 209.33)" fill="#ebebeb" />
            <rect id="Rectangle_22" data-name="Rectangle 22" width="62.28" height="12.72"
                transform="translate(313.17 227.79)" fill="#ebebeb" />
            <path id="Path_279" data-name="Path 279"
                d="M360.48,265.79H329.22a6.35,6.35,0,0,1-6.36-6.36h0a6.36,6.36,0,0,1,6.36-6.36h31.26a6.36,6.36,0,0,1,6.36,6.36h0A6.36,6.36,0,0,1,360.48,265.79Z"
                fill="#07635d" />
            <path id="Path_280" data-name="Path 280"
                d="M364.37,201.67c0,.31-8.75.57-19.54.57s-19.55-.26-19.55-.57,8.75-.58,19.55-.58S364.37,201.35,364.37,201.67Z"
                fill="#263238" />
            <path id="Path_281" data-name="Path 281"
                d="M321.77,218.49H319a.48.48,0,0,1-.49-.48h0a1.83,1.83,0,0,1,1.83-1.84h.06a1.84,1.84,0,0,1,1.84,1.84h0a.48.48,0,0,1-.47.48Z"
                fill="#e0e0e0" />
            <path id="Path_282" data-name="Path 282"
                d="M321.49,215.21a1.09,1.09,0,1,1-.319-.781,1.1,1.1,0,0,1,.319.781Z"
                fill="#e0e0e0" />
            <rect id="Rectangle_23" data-name="Rectangle 23" width="3.28" height="2.32"
                transform="translate(318.75 234.35)" fill="#e0e0e0" />
            <path id="Path_283" data-name="Path 283"
                d="M322.4,234.85h-1.1v-.72a.93.93,0,1,0-1.86,0v.72h-1.1v-.72a2.03,2.03,0,1,1,4.06,0Z"
                fill="#e0e0e0" />
            <path id="Path_284" data-name="Path 284"
                d="M309.11,64.81H298.42a8.06,8.06,0,0,0-3.22.35,5,5,0,0,0-2.54,2.26,5.271,5.271,0,0,0-.6,1.71A9.869,9.869,0,0,0,292,71v2a8.79,8.79,0,0,1-.13,2,5.38,5.38,0,0,1-2.38,3.44,5.05,5.05,0,0,1-2.1.75c-.76.06-1.5,0-2.27,0H246.33a5.87,5.87,0,0,1-1.55-.15,5.08,5.08,0,0,1-2.66-1.65,5.35,5.35,0,0,1-1.3-2.9,10.8,10.8,0,0,1-.06-1.6V71.37a8.53,8.53,0,0,0-.32-3.15,5.14,5.14,0,0,0-1.91-2.5,5,5,0,0,0-3.08-.85H210.79a16.36,16.36,0,0,0-13.17,5.84,16.56,16.56,0,0,0-3.39,6.84c-.16.62-.21,1.28-.33,1.92a9.351,9.351,0,0,0-.07,1.64v263.6a17.13,17.13,0,0,0,.66,5.19,16.41,16.41,0,0,0,6.35,8.76,16.94,16.94,0,0,0,10.47,2.88h97.22c3.45,0,6.92.06,10.33,0a16.21,16.21,0,0,0,9.26-3.59,17.529,17.529,0,0,0,3.34-3.7,16.179,16.179,0,0,0,2.05-4.52,17.269,17.269,0,0,0,.62-4.91V320.14c0-51.87.05-98.57.07-137.8s.08-71,.1-92.91V81.66a17,17,0,0,0-1.2-6.63,16.32,16.32,0,0,0-3.1-4.89,15.55,15.55,0,0,0-3.72-3A15.77,15.77,0,0,0,320.15,65a13.391,13.391,0,0,0-1.67-.15h-2.8Z"
                fill="#fafafa" />
            <path id="Path_285" data-name="Path 285"
                d="M318.08,64.87h.57a12.189,12.189,0,0,1,1.66.12,15.67,15.67,0,0,1,6.17,2.13,15.91,15.91,0,0,1,3.75,3,16.36,16.36,0,0,1,3.13,4.91,17.12,17.12,0,0,1,1.23,6.67V344.37a17.71,17.71,0,0,1-.63,5,16.831,16.831,0,0,1-2.1,4.63,17.67,17.67,0,0,1-3.42,3.8,16.64,16.64,0,0,1-9.5,3.69c-3.44.1-6.87,0-10.33,0H211.74a17.41,17.41,0,0,1-10.71-3,16.8,16.8,0,0,1-6.51-9,18.089,18.089,0,0,1-.69-5.56V81.44c0-.66.05-1.33.09-2a10.837,10.837,0,0,1,.33-2,17,17,0,0,1,3.46-7,16.68,16.68,0,0,1,13.41-5.94h24.59a5.25,5.25,0,0,1,3.24.9,5.44,5.44,0,0,1,2,2.65,8.74,8.74,0,0,1,.33,3.24v1.6a11.611,11.611,0,0,0,0,1.57,5.16,5.16,0,0,0,1.23,2.75,4.86,4.86,0,0,0,2.51,1.56,6.1,6.1,0,0,0,1.48.15h40.92a4.88,4.88,0,0,0,2-.7,5.17,5.17,0,0,0,2.3-3.31,8.933,8.933,0,0,0,.13-2v-2a11.056,11.056,0,0,1,.08-1.91,5.5,5.5,0,0,1,.62-1.76,5.19,5.19,0,0,1,2.63-2.32,8.17,8.17,0,0,1,3.26-.35h0a8.18,8.18,0,0,0-3.21.34,5.11,5.11,0,0,0-2.54,2.26,5.43,5.43,0,0,0-.59,1.71,9.864,9.864,0,0,0-.08,1.89v2a8.74,8.74,0,0,1-.13,2,5.38,5.38,0,0,1-2.38,3.44,5.08,5.08,0,0,1-2.09.74c-.76.07-1.5,0-2.26,0H246.67a5.76,5.76,0,0,1-1.54-.16,5.13,5.13,0,0,1-2.66-1.64,5.5,5.5,0,0,1-1.3-2.89,12.48,12.48,0,0,1,0-1.61v-1.6a8.75,8.75,0,0,0-.32-3.15,5.11,5.11,0,0,0-1.91-2.49,5,5,0,0,0-3.07-.85h-24.6a16.282,16.282,0,0,0-16.51,12.65c-.17.63-.22,1.28-.33,1.92a13.035,13.035,0,0,0-.09,2V344a18.059,18.059,0,0,0,.67,5.43,16.36,16.36,0,0,0,6.34,8.75,16.86,16.86,0,0,0,10.44,2.87H308.7c3.45,0,6.91.06,10.31,0a16.11,16.11,0,0,0,9.23-3.58,17.259,17.259,0,0,0,3.34-3.7,16,16,0,0,0,2-4.51,16.83,16.83,0,0,0,.62-4.89V319.72c0-51.76.05-98.38.08-137.54s.07-70.84.09-92.74V81.69a16.869,16.869,0,0,0-1.2-6.62,16.249,16.249,0,0,0-3.09-4.88,15.811,15.811,0,0,0-3.71-3,15.6,15.6,0,0,0-6.12-2.16,13.421,13.421,0,0,0-1.66-.15Z"
                fill="#263238" />
            <path id="Path_286" data-name="Path 286"
                d="M321.26,91.49c0,.07-2.71.15-6.06.18s-6.07,0-6.07-.08,2.71-.15,6.06-.18S321.26,91.42,321.26,91.49Z"
                fill="#263238" />
            <path id="Path_287" data-name="Path 287"
                d="M321.29,94.6c0,.07-2.72.15-6.07.17s-6.07,0-6.07-.07,2.72-.15,6.07-.18S321.29,94.52,321.29,94.6Z"
                fill="#263238" />
            <path id="Path_288" data-name="Path 288"
                d="M321.31,97.7c0,.07-2.71.15-6.06.18s-6.07,0-6.07-.08,2.71-.15,6.06-.18S321.31,97.63,321.31,97.7Z"
                fill="#263238" />
            <path id="Path_289" data-name="Path 289"
                d="M210.88,101.24h.96l2.59-.06-.07.08V98.29a1,1,0,0,1,.87-.79h1.24a1,1,0,0,1,.85,1v2.74l-.12-.12h3.27l-.13.13V96.17a1.08,1.08,0,0,0-.46-.78l-1.43-1.41L217,92.51l-.67-.66c-.23-.22-.41-.45-.67-.5a.9.9,0,0,0-.75.14c-.2.17-.41.41-.61.6l-1.17,1.18c-.74.77-1.51,1.47-2.07,2.13a2.31,2.31,0,0,0-.16,1.22v4.2a2,2,0,0,1,0,.42V96a1.21,1.21,0,0,1,.18-.69c.6-.74,1.32-1.4,2.07-2.18l1.16-1.2c.21-.2.38-.41.63-.62a1.14,1.14,0,0,1,.95-.19,1.75,1.75,0,0,1,.78.56l.67.66c.46.44.92.9,1.39,1.36L220,95.1a2.881,2.881,0,0,1,.36.4,1.06,1.06,0,0,1,.18.55v5.2h-3.52V98.39a.8.8,0,0,0-.66-.79h-1.19a.81.81,0,0,0-.7.64c0,.33,0,.71,0,1v2h-3.39A1,1,0,0,1,210.88,101.24Z"
                fill="#263238" />
            <rect id="Rectangle_24" data-name="Rectangle 24" width="114.62" height="20.85" rx="8.79"
                transform="translate(206.01 117.65)" fill="#f5f5f5" />
            <path id="Path_290" data-name="Path 290"
                d="M311.83,138.5l.66-.05a8.792,8.792,0,0,0,7.26-5.13,8.24,8.24,0,0,0,.69-2.43,21.46,21.46,0,0,0,.08-2.81,18.667,18.667,0,0,0-.13-3.06,8.8,8.8,0,0,0-1.14-3,8.68,8.68,0,0,0-5.78-4,23.72,23.72,0,0,0-4-.15h-4.23l-90.45.06a8.59,8.59,0,0,0-8.54,7.86c-.08,1,0,2.14,0,3.2a10,10,0,0,0,.32,3.1,8.71,8.71,0,0,0,3.56,4.86,8.29,8.29,0,0,0,2.77,1.18,13.2,13.2,0,0,0,3,.23h58.48l27.41.07h0l-27.41.06H215.89a13.119,13.119,0,0,1-3.11-.23,8.83,8.83,0,0,1-2.91-1.24,9,9,0,0,1-3.73-5.1,10.27,10.27,0,0,1-.34-3.21c0-1.08,0-2.12,0-3.23a9,9,0,0,1,9-8.26l90.45.06h4.23a24.6,24.6,0,0,1,4,.17,8.94,8.94,0,0,1,7.09,7.31,19.178,19.178,0,0,1,.12,3.09,23.711,23.711,0,0,1-.1,2.83,8.66,8.66,0,0,1-.72,2.47,8.82,8.82,0,0,1-2.69,3.35,9,9,0,0,1-2.81,1.43,8.8,8.8,0,0,1-1.91.33A1.25,1.25,0,0,1,311.83,138.5Z"
                fill="#263238" />
            <path id="Path_291" data-name="Path 291"
                d="M313.6,127.58a3.037,3.037,0,0,0-.2-.9,3.74,3.74,0,0,0-1.38-2,3.59,3.59,0,1,0,0,5.76,3.71,3.71,0,0,0,1.38-2c.17-.56.16-.9.2-.9s0,.08,0,.24a2.79,2.79,0,0,1-.06.7,3.73,3.73,0,0,1-1.37,2.18,3.9,3.9,0,0,1-3.73.61,4,4,0,0,1,0-7.46,3.92,3.92,0,0,1,3.73.61,3.76,3.76,0,0,1,1.37,2.18,2.79,2.79,0,0,1,.06.7Q313.63,127.58,313.6,127.58Z"
                fill="#263238" />
            <path id="Path_292" data-name="Path 292"
                d="M315.68,134.09a7.62,7.62,0,0,1-1.85-1.68,7.359,7.359,0,0,1-1.53-2,7.6,7.6,0,0,1,1.85,1.69A7.411,7.411,0,0,1,315.68,134.09Z"
                fill="#263238" />
            <path id="Path_293" data-name="Path 293" d="M221.48,126h-2v-.53h4.7V126h-2v5.29h-.62Z"
                fill="#e0e0e0" />
            <path id="Path_294" data-name="Path 294"
                d="M228.35,129.28h-3.66a1.62,1.62,0,0,0,1.72,1.52,1.71,1.71,0,0,0,1.34-.58l.33.39a2.31,2.31,0,0,1-4-1.52,2.11,2.11,0,0,1,2.14-2.22,2.08,2.08,0,0,1,2.11,2.22Zm-3.66-.44h3.1a1.55,1.55,0,0,0-3.1,0Z"
                fill="#e0e0e0" />
            <path id="Path_295" data-name="Path 295"
                d="M232.22,131.28l-1.39-1.83-1.4,1.83h-.66L230.5,129l-1.65-2.13h.67l1.31,1.71,1.31-1.71h.65L231.15,129l1.74,2.24Z"
                fill="#e0e0e0" />
            <path id="Path_296" data-name="Path 296"
                d="M236.18,131a1.43,1.43,0,0,1-.93.31,1.16,1.16,0,0,1-1.28-1.27V127.4h-.78v-.5H234v-1h.59v1h1.33v.5h-1.33V130a.7.7,0,0,0,.76.79,1,1,0,0,0,.65-.22Z"
                fill="#e0e0e0" />
            <path id="Path_297" data-name="Path 297"
                d="M284.19,158.36c0,.12-8.39.21-18.73.21s-18.74-.09-18.74-.21,8.39-.22,18.74-.22S284.19,158.24,284.19,158.36Z"
                fill="#07635d" />
            <path id="Path_298" data-name="Path 298"
                d="M314.07,166.05c0,.12-15.08.21-33.67.21s-33.68-.09-33.68-.21,15.08-.22,33.68-.22S314.07,165.93,314.07,166.05Z"
                fill="#263238" />
            <path id="Path_299" data-name="Path 299"
                d="M313.28,171.54c0,.12-14.9.21-33.28.21s-33.28-.09-33.28-.21,14.9-.21,33.28-.21S313.28,171.42,313.28,171.54Z"
                fill="#263238" />
            <path id="Path_300" data-name="Path 300"
                d="M286,176.78c0,.12-8.8.21-19.65.21s-19.65-.09-19.65-.21,8.8-.21,19.65-.21S286,176.66,286,176.78Z"
                fill="#263238" />
            <path id="Path_301" data-name="Path 301"
                d="M284.19,200.16c0,.11-8.39.21-18.73.21s-18.74-.1-18.74-.21,8.39-.22,18.74-.22S284.19,200,284.19,200.16Z"
                fill="#07635d" />
            <path id="Path_302" data-name="Path 302"
                d="M314.07,207.85c0,.11-15.08.21-33.67.21s-33.68-.1-33.68-.21,15.08-.22,33.68-.22S314.07,207.73,314.07,207.85Z"
                fill="#263238" />
            <path id="Path_303" data-name="Path 303"
                d="M313.28,213.34c0,.12-14.9.21-33.28.21s-33.28-.09-33.28-.21,14.9-.22,33.28-.22S313.28,213.22,313.28,213.34Z"
                fill="#263238" />
            <path id="Path_304" data-name="Path 304"
                d="M286,218.58c0,.11-8.8.21-19.65.21s-19.65-.1-19.65-.21,8.8-.22,19.65-.22S286,218.46,286,218.58Z"
                fill="#263238" />
            <path id="Path_305" data-name="Path 305"
                d="M284.19,242c0,.12-8.39.22-18.73.22s-18.74-.1-18.74-.22,8.39-.21,18.74-.21S284.19,241.84,284.19,242Z"
                fill="#07635d" />
            <path id="Path_306" data-name="Path 306"
                d="M314.07,249.64c0,.12-15.08.22-33.67.22s-33.68-.1-33.68-.22,15.08-.21,33.68-.21S314.07,249.53,314.07,249.64Z"
                fill="#263238" />
            <path id="Path_307" data-name="Path 307"
                d="M313.28,255.14c0,.11-14.9.21-33.28.21s-33.28-.1-33.28-.21,14.9-.22,33.28-.22S313.28,255,313.28,255.14Z"
                fill="#263238" />
            <path id="Path_308" data-name="Path 308"
                d="M286,260.37c0,.12-8.8.22-19.65.22s-19.65-.1-19.65-.22,8.8-.21,19.65-.21S286,260.26,286,260.37Z"
                fill="#263238" />
            <path id="Path_309" data-name="Path 309"
                d="M284.19,283.75c0,.12-8.39.21-18.73.21s-18.74-.09-18.74-.21,8.39-.21,18.74-.21S284.19,283.63,284.19,283.75Z"
                fill="#07635d" />
            <path id="Path_310" data-name="Path 310"
                d="M314.07,291.44c0,.12-15.08.21-33.67.21s-33.68-.09-33.68-.21,15.08-.21,33.68-.21S314.07,291.32,314.07,291.44Z"
                fill="#263238" />
            <path id="Path_311" data-name="Path 311"
                d="M313.28,296.93c0,.12-14.9.22-33.28.22s-33.28-.1-33.28-.22,14.9-.21,33.28-.21S313.28,296.82,313.28,296.93Z"
                fill="#263238" />
            <path id="Path_312" data-name="Path 312"
                d="M286,302.17c0,.12-8.8.22-19.65.22s-19.65-.1-19.65-.22,8.8-.21,19.65-.21S286,302.05,286,302.17Z"
                fill="#263238" />
            <path id="Path_313" data-name="Path 313"
                d="M284.19,325.26c0,.11-8.39.21-18.73.21s-18.74-.1-18.74-.21,8.39-.22,18.74-.22S284.19,325.14,284.19,325.26Z"
                fill="#07635d" />
            <path id="Path_314" data-name="Path 314"
                d="M314.07,333c0,.11-15.08.21-33.67.21s-33.68-.1-33.68-.21,15.08-.22,33.68-.22S314.07,332.83,314.07,333Z"
                fill="#263238" />
            <path id="Path_315" data-name="Path 315"
                d="M313.28,338.44c0,.12-14.9.21-33.28.21s-33.28-.09-33.28-.21,14.9-.21,33.28-.21S313.28,338.32,313.28,338.44Z"
                fill="#263238" />
            <path id="Path_316" data-name="Path 316"
                d="M286,343.68c0,.12-8.8.21-19.65.21s-19.65-.09-19.65-.21,8.8-.22,19.65-.22S286,343.56,286,343.68Z"
                fill="#263238" />
            <rect id="Rectangle_25" data-name="Rectangle 25" width="22.94" height="30.52"
                transform="matrix(0.006, -1, 1, 0.006, 206.463, 180.987)" fill="#07635d" />
            <path id="Path_317" data-name="Path 317"
                d="M206.46,180.99l10.74-14.2,6.56,8.96,4.5-4.75,8.73,10.16Z" fill="#07635d" />
            <path id="Path_318" data-name="Path 318"
                d="M226.62,165.09a2.41,2.41,0,1,1-2.39-2.41,2.41,2.41,0,0,1,2.39,2.41Z"
                fill="#07635d" />
            <g id="Group_83" data-name="Group 83" opacity="0.2">
                <path id="Path_319" data-name="Path 319"
                    d="M206.46,180.99l10.74-14.2,6.56,8.96,4.5-4.75,8.73,10.16Z" />
            </g>
            <g id="Group_84" data-name="Group 84" opacity="0.2">
                <path id="Path_320" data-name="Path 320"
                    d="M226.62,165.09a2.41,2.41,0,1,1-2.39-2.41,2.41,2.41,0,0,1,2.39,2.41Z" />
            </g>
            <rect id="Rectangle_26" data-name="Rectangle 26" width="22.94" height="30.52"
                transform="matrix(0.006, -1, 1, 0.006, 206.472, 222.258)" fill="#07635d" />
            <path id="Path_321" data-name="Path 321"
                d="M206.46,222.25l10.74-14.2,6.56,8.96,4.5-4.74,8.73,10.16Z" fill="#07635d" />
            <path id="Path_322" data-name="Path 322"
                d="M226.62,206.36a2.4,2.4,0,1,1-.692-1.706,2.41,2.41,0,0,1,.692,1.706Z"
                fill="#07635d" />
            <g id="Group_85" data-name="Group 85" opacity="0.2">
                <path id="Path_323" data-name="Path 323"
                    d="M206.46,222.25l10.74-14.2,6.56,8.96,4.5-4.74,8.73,10.16Z" />
            </g>
            <g id="Group_86" data-name="Group 86" opacity="0.2">
                <path id="Path_324" data-name="Path 324"
                    d="M226.62,206.36a2.4,2.4,0,1,1-.692-1.706,2.41,2.41,0,0,1,.692,1.706Z" />
            </g>
            <rect id="Rectangle_27" data-name="Rectangle 27" width="22.94" height="30.52"
                transform="matrix(0.006, -1, 1, 0.006, 206.461, 263.528)" fill="#07635d" />
            <path id="Path_325" data-name="Path 325"
                d="M206.46,263.52l10.74-14.2,6.56,8.96,4.5-4.75,8.73,10.16Z" fill="#07635d" />
            <path id="Path_326" data-name="Path 326"
                d="M226.62,247.63a2.41,2.41,0,1,1-2.39-2.42,2.41,2.41,0,0,1,2.39,2.42Z"
                fill="#07635d" />
            <g id="Group_87" data-name="Group 87" opacity="0.2">
                <path id="Path_327" data-name="Path 327"
                    d="M206.46,263.52l10.74-14.2,6.56,8.96,4.5-4.75,8.73,10.16Z" />
            </g>
            <g id="Group_88" data-name="Group 88" opacity="0.2">
                <path id="Path_328" data-name="Path 328"
                    d="M226.62,247.63a2.41,2.41,0,1,1-2.39-2.42,2.41,2.41,0,0,1,2.39,2.42Z" />
            </g>
            <rect id="Rectangle_28" data-name="Rectangle 28" width="22.94" height="30.52"
                transform="matrix(0.006, -1, 1, 0.006, 206.47, 304.789)" fill="#07635d" />
            <path id="Path_329" data-name="Path 329"
                d="M206.46,304.79l10.74-14.2,6.56,8.96,4.5-4.75,8.73,10.16Z" fill="#07635d" />
            <path id="Path_330" data-name="Path 330"
                d="M226.62,288.89a2.41,2.41,0,1,1-2.39-2.41A2.41,2.41,0,0,1,226.62,288.89Z"
                fill="#07635d" />
            <g id="Group_89" data-name="Group 89" opacity="0.2">
                <path id="Path_331" data-name="Path 331"
                    d="M206.46,304.79l10.74-14.2,6.56,8.96,4.5-4.75,8.73,10.16Z" />
            </g>
            <g id="Group_90" data-name="Group 90" opacity="0.2">
                <path id="Path_332" data-name="Path 332"
                    d="M226.62,288.89a2.41,2.41,0,1,1-2.39-2.41A2.41,2.41,0,0,1,226.62,288.89Z" />
            </g>
            <rect id="Rectangle_29" data-name="Rectangle 29" width="22.94" height="30.52"
                transform="matrix(0.006, -1, 1, 0.006, 206.459, 345.859)" fill="#07635d" />
            <path id="Path_333" data-name="Path 333"
                d="M206.46,345.85l10.74-14.2,6.56,8.96,4.5-4.74,8.73,10.15Z" fill="#07635d" />
            <path id="Path_334" data-name="Path 334"
                d="M226.62,330a2.41,2.41,0,1,1-2.39-2.42A2.41,2.41,0,0,1,226.62,330Z"
                fill="#07635d" />
            <g id="Group_91" data-name="Group 91" opacity="0.2">
                <path id="Path_335" data-name="Path 335"
                    d="M206.46,345.85l10.74-14.2,6.56,8.96,4.5-4.74,8.73,10.15Z" />
            </g>
            <g id="Group_92" data-name="Group 92" opacity="0.2">
                <path id="Path_336" data-name="Path 336"
                    d="M226.62,330a2.41,2.41,0,1,1-2.39-2.42A2.41,2.41,0,0,1,226.62,330Z" />
            </g>
            <circle id="Ellipse_9" data-name="Ellipse 9" cx="10.88" cy="10.88" r="10.88"
                transform="translate(422.947 126.833) rotate(-76.78)" fill="#07635d" />
            <path id="Path_337" data-name="Path 337"
                d="M435.36,122.28a.47.47,0,0,1-.31-.12l-3.67-3a.5.5,0,0,1,.64-.78l3.27,2.7,4.65-5.69a.52.52,0,0,1,.71-.07.5.5,0,0,1,.07.7l-5,6.08a.48.48,0,0,1-.34.18Z"
                fill="#fff" />
            <circle id="Ellipse_10" data-name="Ellipse 10" cx="14.92" cy="14.92" r="14.92"
                transform="translate(374.15 88.9)" fill="#07635d" />
            <path id="Path_338" data-name="Path 338"
                d="M388.17,109a1,1,0,0,1-.63-.22l-5-4.14a1,1,0,0,1,1.27-1.54l4.24,3.49L394.21,99a1,1,0,0,1,1.54,1.27l-6.8,8.33a1.06,1.06,0,0,1-.68.36Z"
                fill="#fff" />
        </g>
        <g id="freepik--magnifying-glass--inject-5">
            <path id="Path_339" data-name="Path 339"
                d="M325.79,306.42a31.08,31.08,0,0,1-22-36c-.28.76-.55,1.54-.78,2.34a31.1,31.1,0,1,0,59.825,17c.225-.8.4-1.612.565-2.412A31.08,31.08,0,0,1,325.79,306.42Z"
                fill="#263238" />
            <path id="Path_340" data-name="Path 340"
                d="M341.12,251.46a31.1,31.1,0,0,1,22,36c.28-.77.55-1.55.77-2.35a31.09,31.09,0,1,0-59.81-17c-.23.8-.41,1.6-.57,2.41a31.08,31.08,0,0,1,37.61-19.06Z"
                fill="#455a64" />
            <path id="Path_341" data-name="Path 341"
                d="M364.23,284.91a2.143,2.143,0,0,1,.09-.5c.09-.33.17-.83.3-1.44.07-.32.15-.68.24-1.07s.1-.83.16-1.3a23.416,23.416,0,0,0,.25-3.26,29.758,29.758,0,0,0-1.07-8.87,31,31,0,0,0-16.1-19.68,30.187,30.187,0,0,0-3.64-1.5c-.63-.2-1.26-.45-1.91-.62l-2-.46c-.33-.07-.66-.16-1-.21l-1-.13c-.69-.08-1.38-.19-2.09-.24a31.693,31.693,0,0,0-8.64.6c-.72.17-1.43.39-2.16.58a16.869,16.869,0,0,0-2.14.73,34.7,34.7,0,0,0-4.18,1.9,34.27,34.27,0,0,0-3.88,2.62,29.8,29.8,0,0,0-6.56,7,30.63,30.63,0,0,0-5.33,18.72,29.86,29.86,0,0,0,1.92,9.38,32.8,32.8,0,0,0,1.93,4.26,33.845,33.845,0,0,0,2.55,3.82,16.126,16.126,0,0,0,1.44,1.75c.52.54,1,1.11,1.53,1.63a33.125,33.125,0,0,0,3.39,2.8,33.929,33.929,0,0,0,3.63,2.29c.62.32,1.27.59,1.9.89l.95.43c.32.14.65.23,1,.35l1.94.66c.64.19,1.31.32,1.95.48a27.73,27.73,0,0,0,3.88.63,31.07,31.07,0,0,0,24.05-8.27,29.48,29.48,0,0,0,5.57-7,22.61,22.61,0,0,0,1.5-2.91c.2-.43.4-.82.55-1.19l.36-1c.22-.59.38-1.06.5-1.39a5.034,5.034,0,0,1,.19-.47,1.387,1.387,0,0,1-.14.49c-.14.32-.26.8-.45,1.41-.1.31-.21.65-.34,1s-.34.78-.53,1.21a21.6,21.6,0,0,1-1.46,2.95,29.82,29.82,0,0,1-5.55,7.09,31.23,31.23,0,0,1-24.29,8.48,28.426,28.426,0,0,1-3.93-.63c-.66-.16-1.33-.28-2-.48l-2-.66c-.32-.12-.66-.21-1-.35l-1-.44c-.64-.3-1.3-.57-1.93-.9A34.892,34.892,0,0,1,316,301.8a32.9,32.9,0,0,1-3.45-2.84c-.54-.53-1-1.1-1.56-1.65a16.53,16.53,0,0,1-1.46-1.77,34.539,34.539,0,0,1-2.6-3.88,36.066,36.066,0,0,1-2-4.33,30.19,30.19,0,0,1-2-9.54,30.88,30.88,0,0,1,5.41-19,30.24,30.24,0,0,1,6.68-7.08,34.471,34.471,0,0,1,3.95-2.65,37.4,37.4,0,0,1,4.24-1.93,17.428,17.428,0,0,1,2.18-.73c.74-.19,1.46-.42,2.2-.58a32.151,32.151,0,0,1,4.42-.61,33.259,33.259,0,0,1,4.35,0c.72.05,1.42.17,2.13.25l1,.13a9.189,9.189,0,0,1,1,.23l2,.46c.66.18,1.3.43,1.94.64a30,30,0,0,1,3.68,1.54,31.25,31.25,0,0,1,16.19,20,29.262,29.262,0,0,1,1,8.94,21.494,21.494,0,0,1-.3,3.28c-.07.47-.11.91-.19,1.31s-.18.74-.25,1.06q-.24.92-.36,1.44A.768.768,0,0,1,364.23,284.91Z"
                fill="#263238" />
            <path id="Path_342" data-name="Path 342"
                d="M352.41,302.64c.4.27,29.84,27.42,40.68,37.58a4.71,4.71,0,0,0,6.51-.06h0a4.71,4.71,0,0,0-.06-6.84L359.13,296Z"
                fill="#263238" />
        </g>
        <g id="freepik--Character--inject-5">
            <path id="Path_343" data-name="Path 343"
                d="M201.15,204.11l.6-2.36a9,9,0,0,0-.1-4.71l-2.47-8.24a3.1,3.1,0,0,0-1.42-1.79c-1.88-1.08-5.59-3.16-5.91-2.9-2.27,1.89,2.81,5.22,2.81,5.22s2,2.19.41,3.81c-1.77,1.84-5.08-2.2-5.08-2.2s.17-.42.33-.34a6.58,6.58,0,0,0,3.19,1.37v-2.68l-3-1.88a3,3,0,0,0-2.23-.4l-1,.23a2.62,2.62,0,0,0-1.64,1.11l-1,1.48-.42.57a1.88,1.88,0,0,0-.2,1.9l.48,1-.66.92a2.83,2.83,0,0,0-.33,2.64l5.07,7,7.5,12.25,8.12-8.72Z"
                fill="#ffbe9d" />
            <path id="Path_344" data-name="Path 344"
                d="M185.43,196.87a1.571,1.571,0,0,1-.27-.51,1.41,1.41,0,0,1,.24-1.3h0V195l-.08-.18a12.129,12.129,0,0,0-1.09-2,13.281,13.281,0,0,0,.91,2.07l.09.18v-.11a1.47,1.47,0,0,0-.22,1.47C185.18,196.77,185.42,196.9,185.43,196.87Z"
                fill="#eb996e" />
            <path id="Path_345" data-name="Path 345"
                d="M186.05,187.78a2.28,2.28,0,0,0-.16,1.4,10.75,10.75,0,0,0,1.37,3.23,4.13,4.13,0,0,1,.47.94,2.47,2.47,0,0,1,.06,1,2.48,2.48,0,0,0,.18,1.5,3,3,0,0,0,1,1,1.66,1.66,0,0,1-1.17-.92,2.45,2.45,0,0,1-.27-1.62,2.659,2.659,0,0,0-.07-.89,4.251,4.251,0,0,0-.45-.87,9.48,9.48,0,0,1-1.32-3.35C185.54,188.24,186,187.73,186.05,187.78Z"
                fill="#eb996e" />
            <path id="Path_346" data-name="Path 346"
                d="M190.05,190.82a6.351,6.351,0,0,0-.38-1.12c-.31-.58-.64-1-.57-1.08s.51.3.85.94S190.15,190.86,190.05,190.82Z"
                fill="#eb996e" />
            <path id="Path_347" data-name="Path 347"
                d="M203.93,246.01l3.09,3.88,16.06-19.29-21.03-27.66-10.39,8.15Z" fill="#455a64" />
            <path id="Path_348" data-name="Path 348"
                d="M275.37,432.66,276.7,464l16.93-.38-1.27-31.4Z" fill="#07635d" />
            <path id="Path_349" data-name="Path 349"
                d="M285,462.63c.14,0-.12-6.87-.58-15.33s-1-15.31-1.1-15.3.12,6.87.59,15.33S284.87,462.64,285,462.63Z"
                fill="#263238" />
            <path id="Path_350" data-name="Path 350" d="M276.61,461.84l16.93-.43.09,2.21L276.7,464Z"
                fill="#263238" />
            <path id="Path_351" data-name="Path 351"
                d="M293.22,453.59a3.742,3.742,0,0,0-.46-.67,11.714,11.714,0,0,0-1.58-1.54,12,12,0,0,0-2.82-1.71,9,9,0,0,0-10.44,2.45,7.681,7.681,0,0,0-1.16,1.89,2.269,2.269,0,0,0-.23.78,18.512,18.512,0,0,1,1.66-2.44,9,9,0,0,1,6.22-2.89,10.26,10.26,0,0,1,6.54,2.21C292.42,452.75,293.15,453.65,293.22,453.59Z"
                fill="#263238" />
            <g id="Group_93" data-name="Group 93" opacity="0.3">
                <path id="Path_352" data-name="Path 352"
                    d="M292.72,441.15l.14,3.46-16.97.3-.11-2.6Z" />
            </g>
            <path id="Path_353" data-name="Path 353"
                d="M235.53,434.53l.83,19.08s-19.11,7.25-19.3,10.79l37-.27L254,434.35Z"
                fill="#07635d" />
            <path id="Path_354" data-name="Path 354"
                d="M247.56,452a1.51,1.51,0,0,1,1.06,1.73,1.47,1.47,0,0,1-1.7,1.08A1.6,1.6,0,0,1,245.8,453a1.51,1.51,0,0,1,1.9-.92"
                fill="#e0e0e0" />
            <path id="Path_355" data-name="Path 355"
                d="M254.1,464.12v-3l-35.85,1.36s-1.66.73-1.46,1.9Z" fill="#263238" />
            <path id="Path_356" data-name="Path 356"
                d="M236,453.74c0,.18.92.25,1.82.83s1.39,1.34,1.55,1.27-.11-1.12-1.21-1.8S236,453.57,236,453.74Z"
                fill="#263238" />
            <path id="Path_357" data-name="Path 357"
                d="M232.12,455.38c0,.18.75.48,1.38,1.25s.81,1.58,1,1.57.29-1-.51-2S232.13,455.21,232.12,455.38Z"
                fill="#263238" />
            <path id="Path_358" data-name="Path 358"
                d="M229.93,460.08c.17,0,.42-.87-.06-1.87s-1.33-1.38-1.4-1.23.45.68.83,1.51S229.75,460.07,229.93,460.08Z"
                fill="#263238" />
            <path id="Path_359" data-name="Path 359"
                d="M236.32,449.34c.08.16.91-.1,1.94,0s1.84.38,1.93.22-.68-.8-1.9-.86S236.23,449.19,236.32,449.34Z"
                fill="#263238" />
            <path id="Path_360" data-name="Path 360"
                d="M235.63,445.23a3.441,3.441,0,0,0,1.86,0,8.52,8.52,0,0,0,1.95-.62,7.459,7.459,0,0,0,1.07-.58,2.11,2.11,0,0,0,.56-.44.77.77,0,0,0,.08-1,1,1,0,0,0-.8-.41,2.36,2.36,0,0,0-.7.1,7.521,7.521,0,0,0-1.16.41,6.431,6.431,0,0,0-1.71,1.14c-.86.81-1.15,1.49-1.09,1.53s.5-.52,1.37-1.18a7.561,7.561,0,0,1,1.66-1,7.384,7.384,0,0,1,1.07-.33c.4-.11.74-.12.84.06s0,.09,0,.21a2.09,2.09,0,0,1-.41.32,8.366,8.366,0,0,1-1,.57,10.09,10.09,0,0,1-1.8.71A12.56,12.56,0,0,0,235.63,445.23Z"
                fill="#263238" />
            <path id="Path_361" data-name="Path 361"
                d="M235.86,445.49a2.972,2.972,0,0,0,.48-1.81,5.771,5.771,0,0,0-.27-2,5.25,5.25,0,0,0-.48-1.13,1.55,1.55,0,0,0-1.2-.94.89.89,0,0,0-.78.53,2.461,2.461,0,0,0-.18.68,3.79,3.79,0,0,0,0,1.26,4.27,4.27,0,0,0,.81,1.93c.73,1,1.5,1.17,1.51,1.11a7.407,7.407,0,0,1-1.14-1.36,4.1,4.1,0,0,1-.58-2.84c.06-.39.2-.71.35-.67a1.377,1.377,0,0,1,.66.6,7,7,0,0,1,.47,1,6.69,6.69,0,0,1,.38,1.86C236,444.78,235.77,445.46,235.86,445.49Z"
                fill="#263238" />
            <g id="Group_94" data-name="Group 94" opacity="0.3">
                <path id="Path_362" data-name="Path 362"
                    d="M254.11,445.79l-.04,4.23H236.2v-3.84Z" />
            </g>
            <path id="Path_363" data-name="Path 363"
                d="M314,128.29l2.65,10.28s1,5.68-1.66,5.67c-2.34,0-2.57-3.05-2.57-3.05s1.17-6.22-1.89-5.87c-.43.05-1.55,4.34-2.09,6.52a3.24,3.24,0,0,0,.32,2.36l4.41,7.81a9.37,9.37,0,0,0,3.46,3.47l2.21,1.25.29,4.64,12.41.2-3.78-14.48-1.58-8.83a3,3,0,0,0-2.22-1.65l-1.17-.17-.44-1.12a2,2,0,0,0-1.58-1.22l-.72-.09-1-2.51c-.34-.83-2.77-6.3-3.67-6.29C315.37,125.21,313.35,125.76,314,128.29Z"
                fill="#ffbe9d" />
            <path id="Path_364" data-name="Path 364"
                d="M322.86,140.74a8.285,8.285,0,0,0-.23-1.13,4.32,4.32,0,0,0-1.69-2.15,12,12,0,0,1-.93-2.69,3.32,3.32,0,0,1-.13-1.17s.08.44.27,1.13a16.378,16.378,0,0,0,1,2.6c.18.16.4.32.61.5a3.94,3.94,0,0,1,1.06,1.74,3.1,3.1,0,0,1,.12.85.9.9,0,0,1-.08.32Z"
                fill="#eb996e" />
            <path id="Path_365" data-name="Path 365"
                d="M324.75,139.69a1.7,1.7,0,0,0-.18-.56,1.46,1.46,0,0,0-1.15-.75h-.07v-.06l-.07-.19a13.347,13.347,0,0,1-.71-2.25,12.339,12.339,0,0,1,.9,2.17l.08.2-.09-.07a1.55,1.55,0,0,1,1.26.89C324.86,139.44,324.78,139.71,324.75,139.69Z"
                fill="#eb996e" />
            <path id="Path_366" data-name="Path 366"
                d="M251.69,189.42l22.51-.29L271.69,170s1.54-.33,1.64-8.67.49-22.5.49-22.5h0a29,29,0,0,0-29.12,3.66l-1.24.95Z"
                fill="#ffbe9d" />
            <path id="Path_367" data-name="Path 367"
                d="M246.08,153.67c-.14-.06-5.73-1.7-5.55,4s5.87,4.34,5.87,4.18S246.08,153.67,246.08,153.67Z"
                fill="#ffbe9d" />
            <path id="Path_368" data-name="Path 368"
                d="M272.85,152.48c.14-.07,5.22-1.44,5,4.26s-5.87,4.35-5.87,4.18S272.85,152.48,272.85,152.48Z"
                fill="#ffbe9d" />
            <path id="Path_369" data-name="Path 369"
                d="M244.23,153c.85,4.78.68,7.29,1.47,10.48,1.25,5,3.75,8.92,8.3,11.44s10.7,2.47,14.61-1c2.71-2.38,4.63-5.07,5-8.66s.81-9.94.83-13.54c0-6.51.49-12.73.49-12.73l-18.6-3.37L245.78,142Z"
                fill="#263238" />
            <path id="Path_370" data-name="Path 370"
                d="M263.41,177.83a8.38,8.38,0,0,1-6.38-.71c.06-.14,1.43.29,3.18.48a30.837,30.837,0,0,1,3.2.23Z"
                fill="#263238" />
            <path id="Path_371" data-name="Path 371"
                d="M245.13,161.15c-.55-4.89-.9-10.49-1.67-15.65-.28-1.94-1-4.73-.8-6.68a16.1,16.1,0,0,1,1.22-5.73,8.05,8.05,0,0,1,12.55-2.53,6,6,0,0,1,11,2.55,4.19,4.19,0,0,1,6.92,4.2,4.09,4.09,0,0,1,2.76,6.27c-.86,1.33-2.41,2.06-3.36,3.32a4.78,4.78,0,0,0-.29,5.15"
                fill="#263238" />
            <path id="Path_372" data-name="Path 372"
                d="M271,143.46a1.44,1.44,0,0,1-.21.54,3.75,3.75,0,0,1-1.08,1.21,3.88,3.88,0,0,1-2.42.77,4.11,4.11,0,0,1-3-1.4l.39-.1a3.86,3.86,0,0,1-2.48,2.85,4.43,4.43,0,0,1-4.19-.53,6.27,6.27,0,0,1-2.36-3.09h.45a5.25,5.25,0,0,1-4.21,2.31,4.83,4.83,0,0,1-3.54-1.45,5,5,0,0,1-1.29-2.18,1.84,1.84,0,0,1-.1-.9,7.483,7.483,0,0,0,.27.85,5.18,5.18,0,0,0,1.34,2,4.58,4.58,0,0,0,3.3,1.24,4.81,4.81,0,0,0,3.8-2.14l.28-.43.17.48a5.94,5.94,0,0,0,2.18,2.83,4,4,0,0,0,3.72.49,3.45,3.45,0,0,0,2.22-2.46l.09-.47.3.36a3.81,3.81,0,0,0,2.66,1.32,3.7,3.7,0,0,0,2.25-.61,5.34,5.34,0,0,0,1.46-1.49Z"
                fill="#455a64" />
            <path id="Path_373" data-name="Path 373"
                d="M270.91,141.2a5.09,5.09,0,0,0-.79-2.07,3.41,3.41,0,0,0-2-1.32,3.5,3.5,0,0,0-2.83.55l-.45.32v-.56a4.06,4.06,0,0,0-.19-1.64,4.47,4.47,0,0,0-2.28-2.66,4.38,4.38,0,0,0-2.9-.25,6.26,6.26,0,0,0-2.42,1.36,1.71,1.71,0,0,1,.46-.63,4.53,4.53,0,0,1,1.86-1.09,4.61,4.61,0,0,1,3.2.18,4.81,4.81,0,0,1,2.58,2.94,4.639,4.639,0,0,1,.2,1.84l-.4-.23a4,4,0,0,1,3.25-.56,3.66,3.66,0,0,1,2.68,3.2C271,141,270.94,141.21,270.91,141.2Z"
                fill="#455a64" />
            <path id="Path_374" data-name="Path 374"
                d="M259.06,141.37c-.07,0,0-.32,0-.78a3.66,3.66,0,0,0-.58-1.69c-.37-.59-.82-1.19-1.07-1.51a.54.54,0,0,0-.6-.11.324.324,0,0,1,.12-.23.63.63,0,0,1,.7,0,5,5,0,0,1,.65.65,8.388,8.388,0,0,1,.65.88,3.13,3.13,0,0,1,.5,2C259.34,141.14,259.11,141.4,259.06,141.37Z"
                fill="#455a64" />
            <path id="Path_375" data-name="Path 375"
                d="M248,134.2c-.06,0,0-.44.35-1a2.78,2.78,0,0,1,.84-.89,2.2,2.2,0,0,1,1.51-.33,3.61,3.61,0,0,1,2.26,1.41c.42.53.61.89.56.94s-.36-.24-.83-.68a3.86,3.86,0,0,0-2.05-1.15,2.14,2.14,0,0,0-2,.92C248.28,133.86,248.1,134.23,248,134.2Z"
                fill="#455a64" />
            <path id="Path_376" data-name="Path 376"
                d="M250.92,158.38a12.73,12.73,0,0,1-2.65-7.72c.15,0,.45,1.79,1.18,3.91S251.06,158.3,250.92,158.38Z"
                fill="#455a64" />
            <path id="Path_377" data-name="Path 377"
                d="M253.42,159.74a6.73,6.73,0,0,1-1.38-2.59,7,7,0,0,1-.68-2.85,10.81,10.81,0,0,1,1.17,2.67,10.8,10.8,0,0,1,.89,2.77Z"
                fill="#455a64" />
            <path id="Path_378" data-name="Path 378"
                d="M269.08,160.13a10.89,10.89,0,0,1-3.47,9.19A31.506,31.506,0,0,0,268,165a30.519,30.519,0,0,0,1.08-4.87Z"
                fill="#455a64" />
            <path id="Path_379" data-name="Path 379"
                d="M271.58,156a7.31,7.31,0,0,1,.36,4.52,7.21,7.21,0,0,1-1.93,4.09,25.139,25.139,0,0,0,1.42-4.19,24.928,24.928,0,0,0,.15-4.42Z"
                fill="#455a64" />
            <path id="Path_380" data-name="Path 380"
                d="M264.38,313.1l5.47,52.76,3.93,79.46h20.97l.57-169.12-60.04,4.29-12.44,88.73,10.78,77.65h23l-5.38-73.84,13.14-59.93"
                fill="#263238" />
            <path id="Path_381" data-name="Path 381"
                d="M264.38,313.1a63.571,63.571,0,0,1-8.51,7.66,32.057,32.057,0,0,1,4.08-4A31.258,31.258,0,0,1,264.38,313.1Z"
                fill="#455a64" />
            <path id="Path_382" data-name="Path 382"
                d="M264.32,312a60.575,60.575,0,0,1,.11-6.77,58.846,58.846,0,0,1,.389-6.755,36.134,36.134,0,0,1,.131,6.775A35.422,35.422,0,0,1,264.32,312Z"
                fill="#455a64" />
            <path id="Path_383" data-name="Path 383"
                d="M271.25,292.35a1.567,1.567,0,0,1,.34,0l1-.06,4-.19,14.22-.6h.24v15.47l-.17.06-9.25,3.71h-.17l-8.17-2.84h-.13v-.13c-.6-4.61-1.1-8.45-1.45-11.2-.16-1.28-.28-2.31-.38-3.08a8.529,8.529,0,0,1-.1-1,2.177,2.177,0,0,1,.07.3,5.5,5.5,0,0,0,.14.83c.12.78.28,1.82.49,3.12.41,2.71,1,6.48,1.66,11l-.14-.17,8.19,2.78h-.17l9.24-3.73-.16.24V291.82l.24.23-14.06.35-4,.07h-1.48Z"
                fill="#455a64" />
            <path id="Path_384" data-name="Path 384"
                d="M241,292.61a1.111,1.111,0,0,1,.31,0l.93-.05,3.6-.11,13-.3H259v.24c-.14,4.38-.3,9.43-.47,14.8v.14l-.11.07-1.5,1-7.6,5-.14.09-.13-.09-8.56-5.21-.11-.07V308c.16-4.6.3-8.43.39-11.18.06-1.28.1-2.31.14-3.08a9.341,9.341,0,0,1,.07-1,1,1,0,0,1,0,.3V297c0,2.71-.1,6.5-.17,11.05l-.1-.19,8.6,5.15H249l7.59-5,1.51-1-.12.2c.19-5.37.38-10.42.54-14.8l.23.24-12.83.07H241.3Z"
                fill="#455a64" />
            <path id="Path_385" data-name="Path 385"
                d="M288.84,316.51a14.681,14.681,0,0,1-2.84-.09c-1.75-.13-4.17-.37-6.82-.71s-5.05-.73-6.77-1a14.089,14.089,0,0,1-2.77-.64,15.676,15.676,0,0,1,2.82.27l6.79.9,6.78.86A17.073,17.073,0,0,1,288.84,316.51Z"
                fill="#455a64" />
            <path id="Path_386" data-name="Path 386"
                d="M288.35,375.32a1.525,1.525,0,0,1-.49.67,3.35,3.35,0,0,1-2.15.73,5.07,5.07,0,0,1-3.13-1.2,21.749,21.749,0,0,1-2.86-2.89,39.6,39.6,0,0,1-4.24-6,12.831,12.831,0,0,1-1.33-2.73,29.731,29.731,0,0,1,1.64,2.54,53,53,0,0,0,4.33,5.83,23.553,23.553,0,0,0,2.76,2.85,4.85,4.85,0,0,0,2.84,1.21,3.34,3.34,0,0,0,2-.52C288.15,375.54,288.31,375.3,288.35,375.32Z"
                fill="#455a64" />
            <path id="Path_387" data-name="Path 387"
                d="M246.94,377.18a1.44,1.44,0,0,1-.28.67,4.5,4.5,0,0,1-1.45,1.38,5.55,5.55,0,0,1-2.88.75,6.74,6.74,0,0,1-3.46-1.1,12.19,12.19,0,0,1-4.17-5,10.848,10.848,0,0,1-1-2.47,17.739,17.739,0,0,1,1.36,2.3,13.18,13.18,0,0,0,4.12,4.7,6.5,6.5,0,0,0,3.2,1.06,5.49,5.49,0,0,0,2.69-.59A6.12,6.12,0,0,0,246.94,377.18Z"
                fill="#455a64" />
            <path id="Path_388" data-name="Path 388"
                d="M248.28,369.22a5.17,5.17,0,0,1-1.73,1,13.7,13.7,0,0,1-9.47.39,5.359,5.359,0,0,1-1.8-.86,21.35,21.35,0,0,0,6.55,1,22,22,0,0,0,6.45-1.53Z"
                fill="#455a64" />
            <path id="Path_389" data-name="Path 389"
                d="M316.52,183H286s-4.16-2.39-6.17-2a7.92,7.92,0,0,0-3.75,2.55l4.05,33.68,9.9-7.33,36.86-3.83a11.74,11.74,0,0,0,8.42-3.69h0a11.74,11.74,0,0,0,3.11-9.43l-6.82-36.23-14,.47-.55,9.19Z"
                fill="#455a64" />
            <path id="Path_390" data-name="Path 390"
                d="M232.36,191.49a18.77,18.77,0,0,0-7.38,8.58c-1.79,4.28-14,25.66-20.38,36.84a10.58,10.58,0,0,0,1.53,12.57h0c3.9,4.07,8.56,2.48,14.25.63,2.55-.83,14-18.44,14-18.44Z"
                fill="#455a64" />
            <path id="Path_391" data-name="Path 391"
                d="M237.68,267.88l-7.01-60.31,1.69-16.08,17.84-7.6,23.12-1.52,22,2.43-5.14,61.86,5.63,34.89-61.64,2.78Z"
                fill="#455a64" />
            <path id="Path_392" data-name="Path 392"
                d="M237.65,267.62c-.15,0-1.82-13.41-3.75-30s-3.37-30-3.23-30.06,1.82,13.42,3.75,30S237.79,267.6,237.65,267.62Z"
                fill="#263238" />
            <path id="Path_393" data-name="Path 393"
                d="M294.87,198.33a2.3,2.3,0,0,1,0,.55c0,.41-.09.92-.14,1.54-.15,1.42-.34,3.35-.58,5.69-.49,4.87-1.15,11.47-1.88,18.77s-1.27,14-1.63,18.78c-.17,2.35-.31,4.28-.41,5.7-.05.63-.09,1.14-.12,1.55a3.248,3.248,0,0,1-.08.54,1.91,1.91,0,0,1,0-.54v-1.56c0-1.35.12-3.3.24-5.71.27-4.82.78-11.48,1.48-18.81s1.45-14,2-18.76c.3-2.4.55-4.33.75-5.67.09-.62.17-1.13.23-1.54a2,2,0,0,1,.14-.53Z"
                fill="#263238" />
            <path id="Path_394" data-name="Path 394"
                d="M284.27,258.38a11.464,11.464,0,0,1-1,1.19,14.337,14.337,0,0,1-1.25,1.31c-.52.48-1.08,1.06-1.78,1.6a26,26,0,0,1-2.32,1.76,32.136,32.136,0,0,1-2.83,1.78,35.26,35.26,0,0,1-14.58,4.35c-1.18.05-2.3.13-3.34.07a28.123,28.123,0,0,1-2.91-.2c-.88-.07-1.67-.25-2.37-.37a14.085,14.085,0,0,1-1.76-.41,8.646,8.646,0,0,1-1.47-.46c0-.12,2.13.54,5.64.87a25.774,25.774,0,0,0,2.87.13c1,.05,2.14-.05,3.3-.11a36.61,36.61,0,0,0,14.39-4.29c1-.59,2-1.11,2.82-1.71s1.63-1.15,2.32-1.69C282.78,260,284.18,258.3,284.27,258.38Z"
                fill="#263238" />
            <g id="Group_95" data-name="Group 95" opacity="0.3">
                <path id="Path_395" data-name="Path 395"
                    d="M251.68,269.64c-3-.86-3.17-3.69-2-4.9s3-1.37,4.71-1.13a23.48,23.48,0,0,0,5,.67c2.74-.18,5-2.09,6.94-4.07s3.71-4.2,6.21-5.34,6-.73,7.3,1.68a5.22,5.22,0,0,1-.3,5,11.52,11.52,0,0,1-3.71,3.64,30.34,30.34,0,0,1-24.12,4.45" />
            </g>
            <path id="Path_396" data-name="Path 396"
                d="M288.13,184.23a8,8,0,0,1,4,3.19,8.15,8.15,0,0,1,1.77,4.81,20.49,20.49,0,0,0-2.19-4.5,20.8,20.8,0,0,0-3.58-3.5Z"
                fill="#263238" />
            <path id="Path_397" data-name="Path 397"
                d="M286,183.55a3,3,0,0,0-.5-.3,2.61,2.61,0,0,0-1.66-.11,4.67,4.67,0,0,0-2.28,1.36,24.938,24.938,0,0,1-2.52,2.56,7.41,7.41,0,0,1-4.14,1.27c-1.57.08-3.24-.08-5-.13a99.184,99.184,0,0,0-11.42.25,73.189,73.189,0,0,0-20.2,4.46,61.569,61.569,0,0,0-5.75,2.55l-1.51.8c-.35.18-.54.26-.54.26s.17-.11.52-.3l1.49-.83a60.554,60.554,0,0,1,5.73-2.62,72,72,0,0,1,20.24-4.53A97.146,97.146,0,0,1,269.9,188c1.76.05,3.43.22,5,.15a7.31,7.31,0,0,0,4.07-1.22,28.455,28.455,0,0,0,2.52-2.52,4.57,4.57,0,0,1,2.34-1.35,2.53,2.53,0,0,1,1.69.14,1.57,1.57,0,0,1,.48.35Z"
                fill="#fafafa" />
            <path id="Path_398" data-name="Path 398"
                d="M292.92,195.91a4.65,4.65,0,0,0-.62-.14,6.6,6.6,0,0,0-1.81-.06,10,10,0,0,0-2.76.74,32.424,32.424,0,0,0-3.39,1.74,19.291,19.291,0,0,1-4.25,1.83,27.4,27.4,0,0,1-5.26.85c-3.74.23-7.85.29-12.15.62-8.62.6-16.37,1.64-22,2.55-2.8.45-5,.87-6.6,1.16l-1.79.33-.63.11.62-.15,1.78-.37c1.55-.31,3.8-.76,6.59-1.22a215.973,215.973,0,0,1,22-2.61c4.31-.34,8.43-.39,12.16-.61a27.66,27.66,0,0,0,5.22-.83,18.821,18.821,0,0,0,4.23-1.79,31.268,31.268,0,0,1,3.42-1.72,10,10,0,0,1,2.8-.71,6,6,0,0,1,1.82.1,2.62,2.62,0,0,1,.62.18Z"
                fill="#fafafa" />
            <path id="Path_399" data-name="Path 399"
                d="M293.07,212.91s-.78.37-2.22.93a64.21,64.21,0,0,1-6.21,2.07,93.06,93.06,0,0,1-21.35,3.19,197.875,197.875,0,0,1-21.6-.51l-6.54-.51-1.77-.16a2.245,2.245,0,0,1-.62-.07h.62l1.78.12,6.54.44a207.648,207.648,0,0,0,21.58.45,95.57,95.57,0,0,0,21.32-3.12c2.66-.74,4.78-1.46,6.23-2,.72-.26,1.28-.5,1.66-.64Z"
                fill="#fafafa" />
            <path id="Path_400" data-name="Path 400"
                d="M290.73,232.54s-.73.32-2.08.78a41.634,41.634,0,0,1-5.86,1.5,58.668,58.668,0,0,1-8.93.91c-3.38.12-7.1,0-11-.22-7.78-.52-14.82-1.07-19.92-.89-2.55.07-4.61.24-6,.4-.71.07-1.26.16-1.63.2l-.57.07a50.879,50.879,0,0,1,8.22-.81c5.12-.22,12.17.31,19.95.82,3.88.23,7.59.35,11,.24a61.61,61.61,0,0,0,8.91-.86,43.642,43.642,0,0,0,5.87-1.44c.68-.2,1.19-.41,1.55-.52Z"
                fill="#fafafa" />
            <path id="Path_401" data-name="Path 401"
                d="M288.83,247.73s-2.83.93-7.5,2c-2.34.55-5.15,1.09-8.29,1.57s-6.6.85-10.26,1.09-7.15.23-10.32.16-6-.3-8.41-.56c-4.77-.5-7.69-1.09-7.69-1.09l.54.06,1.53.22c1.32.2,3.25.43,5.63.66s5.24.42,8.41.51,6.65,0,10.3-.17,7.11-.62,10.25-1.07,5.94-1,8.27-1.52,4.23-1,5.52-1.34l1.49-.39Z"
                fill="#fafafa" />
            <path id="Path_402" data-name="Path 402"
                d="M290.94,253.28l-.52.2-1.5.54c-1.31.48-3.17,1.24-5.44,2.24s-5,2.26-8,3.51a52.18,52.18,0,0,1-10.22,3.13,85,85,0,0,1-19.38,1.1c-2.48-.1-4.49-.23-5.88-.32l-1.59-.12h0l1.6.08,5.88.25a86.73,86.73,0,0,0,19.33-1.13,53,53,0,0,0,10.19-3.09c3-1.24,5.72-2.49,8-3.47s4.16-1.73,5.47-2.19S290.94,253.28,290.94,253.28Z"
                fill="#fafafa" />
            <path id="Path_403" data-name="Path 403"
                d="M294.07,269.84s-.68.46-2,1.21a41,41,0,0,1-5.77,2.64,63.71,63.71,0,0,1-20.59,3.48c-8.19.15-15.59-.5-20.94-.73-2.68-.13-4.84-.2-6.34-.24h0c1.5,0,3.67.06,6.35.18,5.35.18,12.75.81,20.92.66a64.51,64.51,0,0,0,20.55-3.41A41.563,41.563,0,0,0,292,271c.67-.33,1.16-.66,1.51-.84A6.316,6.316,0,0,0,294.07,269.84Z"
                fill="#fafafa" />
            <path id="Path_404" data-name="Path 404"
                d="M303.39,208.78a.941.941,0,0,1,.05-.25c.06-.22.12-.46.19-.71.17-.62.39-1.51.63-2.63a40.389,40.389,0,0,0-.27-17.64c-.26-1.11-.51-2-.7-2.61l-.22-.7L303,184a.72.72,0,0,1,.1.24c.08.21.16.44.25.69.22.6.49,1.48.77,2.59a38,38,0,0,1,.27,17.71c-.25,1.12-.49,2-.69,2.62-.09.25-.16.48-.23.7a1.781,1.781,0,0,1-.08.23Z"
                fill="#fafafa" />
            <path id="Path_405" data-name="Path 405"
                d="M318.2,205.16a.82.82,0,0,1,0-.23v-3.05a37.3,37.3,0,0,0-3.49-15.31c-.43-.91-.81-1.65-1.08-2.14l-.31-.58q-.11-.19-.09-.21a1.8,1.8,0,0,1,.13.19l.34.56c.3.48.69,1.21,1.14,2.12a34.831,34.831,0,0,1,3.5,15.37,23.849,23.849,0,0,1-.1,2.4l-.07.66A1.421,1.421,0,0,1,318.2,205.16Z"
                fill="#fafafa" />
            <path id="Path_406" data-name="Path 406"
                d="M338.21,198.21a2.019,2.019,0,0,1-.19-.2l-.51-.59c-.43-.53-1.08-1.27-1.91-2.15a48.42,48.42,0,0,0-15.34-11c-1.11-.5-2-.88-2.66-1.12l-.73-.28a1.339,1.339,0,0,1-.25-.12,1,1,0,0,1,.27.08l.74.25c.65.21,1.57.57,2.69,1.06a45.58,45.58,0,0,1,15.39,11c.81.9,1.45,1.65,1.86,2.2.18.22.34.43.48.62A1.231,1.231,0,0,1,338.21,198.21Z"
                fill="#fafafa" />
            <path id="Path_407" data-name="Path 407"
                d="M333.67,169.88a4,4,0,0,1-.64,0h-7.45c-2.24,0-4.25.12-5.71.2l-1.73.09a4.487,4.487,0,0,1-.64,0,3.937,3.937,0,0,1,.64-.09c.4,0,1-.1,1.72-.16,1.46-.11,3.49-.22,5.72-.26s4.26,0,5.72.06l1.74.1a4,4,0,0,1,.63.06Z"
                fill="#fafafa" />
            <path id="Path_408" data-name="Path 408"
                d="M220.38,209.57a2.48,2.48,0,0,1,.38.39c.22.27.57.64,1,1.09a26,26,0,0,0,3.74,3.11,46.6,46.6,0,0,0,4.18,2.54l1.3.71a2.889,2.889,0,0,1,.47.28,2.25,2.25,0,0,1-.5-.21c-.32-.14-.78-.36-1.34-.65a38.869,38.869,0,0,1-4.23-2.49,23.59,23.59,0,0,1-3.73-3.19,12.782,12.782,0,0,1-1-1.14,3,3,0,0,1-.27-.44Z"
                fill="#fafafa" />
            <path id="Path_409" data-name="Path 409"
                d="M224.6,201.56a5.514,5.514,0,0,0,.7.81,16,16,0,0,0,2,1.59,25.179,25.179,0,0,0,2.21,1.34,7.022,7.022,0,0,1,.95.51,11.31,11.31,0,0,1-3.27-1.67,11.641,11.641,0,0,1-2-1.67,2.41,2.41,0,0,1-.59-.91Z"
                fill="#fafafa" />
            <path id="Path_410" data-name="Path 410"
                d="M231.71,235.68a.466.466,0,0,1-.22-.09l-.61-.32c-.52-.28-1.27-.71-2.16-1.29a45.231,45.231,0,0,1-6.52-5.17,41.5,41.5,0,0,1-5.43-6.29,23.494,23.494,0,0,1-1.34-2.14l-.33-.6c-.08-.14-.11-.21-.1-.22l.13.2.37.58c.3.51.77,1.23,1.39,2.09a45.5,45.5,0,0,0,5.46,6.23,48.358,48.358,0,0,0,6.45,5.19c.88.6,1.61,1.05,2.12,1.35l.59.35Z"
                fill="#fafafa" />
            <path id="Path_411" data-name="Path 411"
                d="M203.93,246a4.94,4.94,0,0,1-.19-1.15,18.87,18.87,0,0,1-.07-3.16,20.46,20.46,0,0,1,3.32-9.83c2.15-3.44,4.12-6.54,5.57-8.77l1.74-2.62a5.761,5.761,0,0,1,.7-.93,5,5,0,0,1-.53,1l-1.6,2.71c-1.37,2.28-3.29,5.4-5.43,8.84a21.21,21.21,0,0,0-3.4,9.59C203.81,244.36,204,246,203.93,246Z"
                fill="#263238" />
            <path id="Path_412" data-name="Path 412"
                d="M221.43,250.06a12.811,12.811,0,0,1-3.46-.52,16.23,16.23,0,0,1-11.45-11.45,13,13,0,0,1-.51-3.45.92.92,0,0,1,0,.24,2.256,2.256,0,0,0,.09.69,17.082,17.082,0,0,0,.53,2.48A16.4,16.4,0,0,0,218,249.4a17.44,17.44,0,0,0,2.49.53,3.311,3.311,0,0,1,.69.09Z"
                fill="#fafafa" />
            <path id="Path_413" data-name="Path 413"
                d="M211.39,215.92a.74.74,0,0,1-.18.12l-.52.32a21.29,21.29,0,0,0-1.86,1.23A26.51,26.51,0,0,0,199.75,229c-.36.87-.63,1.58-.78,2.09-.07.2-.14.39-.2.58s-.07.19-.08.19a.87.87,0,0,1,0-.21c.05-.18.1-.38.16-.59a18.781,18.781,0,0,1,.73-2.12,25.9,25.9,0,0,1,3.71-6.39,25.538,25.538,0,0,1,5.41-5,17.858,17.858,0,0,1,1.91-1.18l.54-.28C211.32,215.94,211.38,215.91,211.39,215.92Z"
                fill="#fafafa" />
            <path id="Path_414" data-name="Path 414"
                d="M205.78,208.52l-.57.2c-.37.11-.9.3-1.54.56a17.9,17.9,0,0,0-4.59,2.78,26,26,0,0,0-3.72,3.9c-.43.54-.77,1-1,1.3a4.159,4.159,0,0,1-.38.47,3.752,3.752,0,0,1,.31-.52c.21-.32.53-.79.94-1.34a22.851,22.851,0,0,1,3.71-4,16.44,16.44,0,0,1,4.67-2.76,14.573,14.573,0,0,1,1.57-.5,3.617,3.617,0,0,1,.6-.09Z"
                fill="#fafafa" />
        </g>
    </g>
</svg>
